<svg width="23" height="27" viewBox="0 0 23 27" fill="none" xmlns="http://www.w3.org/2000/svg">
<path d="M15.2589 12.4806C15.2589 13.2823 14.6674 13.9394 13.9183 13.9394C13.1823 13.9394 12.5777 13.2823 12.5777 12.4806C12.5777 11.6789 13.1691 11.0217 13.9183 11.0217C14.6674 11.0217 15.2589 11.6789 15.2589 12.4806ZM9.12114 11.0217C8.372 11.0217 7.78057 11.6789 7.78057 12.4806C7.78057 13.2823 8.38514 13.9394 9.12114 13.9394C9.87029 13.9394 10.4617 13.2823 10.4617 12.4806C10.4749 11.6789 9.87029 11.0217 9.12114 11.0217ZM23 2.7023V26.2806C19.6889 23.3546 20.7478 24.3231 16.9017 20.7474L17.5983 23.1789H2.69429C1.20914 23.1789 0 21.9697 0 20.4714V2.7023C0 1.20402 1.20914 -0.00512695 2.69429 -0.00512695H20.3057C21.7909 -0.00512695 23 1.20402 23 2.7023ZM19.2543 15.1617C19.2543 10.9297 17.3617 7.49944 17.3617 7.49944C15.4691 6.08002 13.6686 6.11944 13.6686 6.11944L13.4846 6.32973C15.7189 7.01316 16.7571 7.99887 16.7571 7.99887C13.6351 6.28779 9.96783 6.28748 6.93943 7.61773C6.45314 7.84116 6.164 7.99887 6.164 7.99887C6.164 7.99887 7.25486 6.96059 9.62057 6.27716L9.48914 6.11944C9.48914 6.11944 7.68857 6.08002 5.796 7.49944C5.796 7.49944 3.90343 10.9297 3.90343 15.1617C3.90343 15.1617 5.00743 17.0674 7.912 17.1594C7.912 17.1594 8.39829 16.568 8.79257 16.0686C7.12343 15.5692 6.49257 14.5177 6.49257 14.5177C6.68591 14.6531 7.00473 14.8285 7.03143 14.8463C9.2498 16.0886 12.4009 16.4956 15.2326 15.3063C15.6926 15.1354 16.2051 14.8857 16.744 14.5309C16.744 14.5309 16.0869 15.6086 14.3651 16.0949C14.7594 16.5943 15.2326 17.1594 15.2326 17.1594C18.1371 17.0674 19.2543 15.1617 19.2543 15.1617Z" fill="white"/>
</svg>
