<svg fill="none" height="16" viewBox="0 0 16 16" width="16" xmlns="http://www.w3.org/2000/svg"><path clip-rule="evenodd" d="m15.3712 11.114c-.4029.9527-.9797 1.8082-1.7143 2.5429-.7347.7346-1.5902 1.3114-2.5429 1.7144-.9864.4172-2.03409.6287-3.11403.6287-1.07988 0-2.12758-.2115-3.114-.6287-.95266-.403-1.80815-.9798-2.54284-1.7144-.73463-.7347-1.31139-1.5902-1.714331-2.5429-.417255-.9864-.628799-2.03409-.628799-3.11403 0-1.07988.211544-2.12758.628799-3.114.402941-.95266.979701-1.80815 1.714331-2.54284.73469-.73457 1.59018-1.31139 2.54284-1.714331.98642-.417196 2.03412-.628799 3.114-.628799 1.07994 0 2.12763.211603 3.11403.628799.9527.402941 1.8082.979761 2.5429 1.714331.7346.73469 1.3114 1.59018 1.7143 2.54284.4173.98642.6288 2.03412.6288 3.114 0 1.07994-.2115 2.12763-.6288 3.11403zm-7.37123-10.686728c-4.17561 0-7.572698 3.397088-7.572698 7.572698 0 4.17563 3.397088 7.57283 7.572698 7.57283 4.17563 0 7.57273-3.3972 7.57273-7.57283 0-4.17561-3.3971-7.572698-7.57273-7.572698zm4.95753 9.708228-.577.5828c-.536.5414-1.3933.5533-1.9148.0266-.52158-.5268-.5098-1.39264.0262-1.93405l-1.7837 1.80155c-.53599.5413-1.39324.5532-1.9148.0265-.52149-.5268-.50977-1.39265.02622-1.934l-1.88857 1.9075c-.536.5413-1.39331.5532-1.9148.0265-.5215-.5268-.50977-1.39265.02622-1.934l4.24933-4.29187c.53599-.54136 1.3933-.5532 1.9148-.02646.52155.52674.50977 1.3926-.02622 1.93395.53599-.54135 1.39332-.5532 1.91482-.02646s.5097 1.3926-.0262 1.93395c.5359-.54135 1.3933-.55319 1.9148-.02651.5215.5268.5097 1.39265-.0263 1.934z" fill="#f00d32" fill-rule="evenodd"/></svg>
