<svg width="23" height="19" viewBox="0 0 23 19" fill="none" xmlns="http://www.w3.org/2000/svg">
<path d="M20.6358 4.65545C20.6504 4.85976 20.6504 5.06411 20.6504 5.26841C20.6504 11.5 15.9074 18.6803 7.2386 18.6803C4.5679 18.6803 2.08694 17.9067 0 16.5642C0.379457 16.6079 0.744269 16.6225 1.13832 16.6225C3.34198 16.6225 5.37057 15.8782 6.9905 14.6086C4.91816 14.5648 3.18147 13.2075 2.58311 11.3395C2.87501 11.3832 3.16687 11.4124 3.47337 11.4124C3.89658 11.4124 4.31984 11.354 4.71385 11.2519C2.55395 10.8141 0.933974 8.91689 0.933974 6.62564V6.56729C1.56149 6.91755 2.29125 7.13645 3.06467 7.16561C1.795 6.31914 0.963174 4.87436 0.963174 3.23982C0.963174 2.3642 1.19663 1.56154 1.60529 0.861021C3.92574 3.72143 7.41371 5.58943 11.3248 5.79378C11.2519 5.44352 11.2081 5.07871 11.2081 4.71385C11.2081 2.1161 13.3096 0 15.9219 0C17.2792 0 18.5051 0.569162 19.3661 1.48858C20.4314 1.28428 21.453 0.89022 22.3579 0.350257C22.0076 1.44483 21.2633 2.36425 20.2855 2.94796C21.2342 2.84586 22.1536 2.58311 23 2.2183C22.358 3.15227 21.5553 3.98409 20.6358 4.65545Z" fill="white"/>
</svg>
