<svg width="23" height="17" viewBox="0 0 23 17" fill="none" xmlns="http://www.w3.org/2000/svg">
<path d="M22.5194 2.52522C22.2549 1.52922 21.4755 0.744801 20.4859 0.478597C18.6923 -0.00512695 11.5 -0.00512695 11.5 -0.00512695C11.5 -0.00512695 4.30774 -0.00512695 2.51405 0.478597C1.52449 0.744843 0.745127 1.52922 0.480607 2.52522C0 4.33053 0 8.09714 0 8.09714C0 8.09714 0 11.8637 0.480607 13.6691C0.745127 14.6651 1.52449 15.4168 2.51405 15.683C4.30774 16.1667 11.5 16.1667 11.5 16.1667C11.5 16.1667 18.6923 16.1667 20.4859 15.683C21.4755 15.4168 22.2549 14.6651 22.5194 13.6691C23 11.8637 23 8.09714 23 8.09714C23 8.09714 23 4.33053 22.5194 2.52522ZM9.14771 11.5169V4.67734L15.159 8.09723L9.14771 11.5169Z" fill="white"/>
</svg>
