<svg width="296" height="23" viewBox="0 0 296 23" fill="none" xmlns="http://www.w3.org/2000/svg">
<g clip-path="url(#clip0_141_235)">
<path fill-rule="evenodd" clip-rule="evenodd" d="M286.658 7.07899C286.658 11.934 286.658 16.679 286.658 21.477C284.714 21.477 282.848 21.477 280.837 21.477C280.837 16.658 280.837 11.913 280.837 7.07399C277.799 7.07399 274.845 7.07399 271.836 7.07399C271.836 5.16499 271.836 3.34999 271.836 1.47399C279.865 1.47399 287.863 1.47399 295.908 1.47399C295.908 3.33899 295.908 5.15399 295.908 7.07899C292.815 7.07899 289.775 7.07899 286.658 7.07899ZM263.147 21.799C259.214 22.28 255.284 22.35 251.416 21.327C248.598 20.581 246.657 18.933 246.29 15.838C246.252 15.521 246.256 15.198 246.236 14.787C246.572 14.763 246.853 14.727 247.134 14.726C248.457 14.72 249.78 14.746 251.102 14.713C251.708 14.698 252.047 14.814 252.179 15.514C252.351 16.426 253.155 16.812 253.958 16.863C256.325 17.014 258.699 17.099 261.072 17.118C261.879 17.124 262.699 16.901 263.493 16.701C264.132 16.541 264.597 16.127 264.592 15.386C264.587 14.608 264.11 14.147 263.418 14.047C261.911 13.83 260.392 13.691 258.875 13.55C256.624 13.341 254.37 13.177 252.121 12.953C251.542 12.895 250.971 12.708 250.41 12.538C247.782 11.739 246.547 10.28 246.431 7.86999C246.295 5.01999 247.426 2.94799 249.993 2.09399C251.868 1.47099 253.868 1.10699 255.839 0.928991C259.216 0.623991 262.599 0.727991 265.872 1.81699C268.327 2.63499 269.843 4.26399 270.157 6.90799C270.194 7.22699 270.195 7.55099 270.218 7.97799C268.259 7.97799 266.415 7.97799 264.484 7.97799C264.307 6.32299 263.042 5.96199 261.706 5.92099C259.303 5.84699 256.896 5.88899 254.493 5.93799C253.982 5.94899 253.401 6.08599 252.99 6.36899C252.637 6.61199 252.293 7.14399 252.293 7.54899C252.293 7.90199 252.71 8.43299 253.064 8.56999C253.763 8.83999 254.541 8.96199 255.295 9.02299C258.106 9.24999 260.925 9.38099 263.732 9.64799C264.802 9.74899 265.867 10.054 266.898 10.38C268.904 11.015 270.137 12.384 270.358 14.528C270.59 16.777 270.096 18.773 268.118 20.142C266.623 21.176 264.907 21.584 263.147 21.799ZM237.576 1.47199C239.486 1.47199 241.346 1.47199 243.262 1.47199C243.262 8.15699 243.262 14.792 243.262 21.479C241.358 21.479 239.493 21.479 237.576 21.479C237.576 14.8 237.576 8.16599 237.576 1.47199ZM214.354 1.48199C216.253 1.48199 218.136 1.48199 220.101 1.48199C220.101 6.33799 220.101 11.14 220.101 16.029C225.071 16.029 229.96 16.029 234.92 16.029C234.92 17.891 234.92 19.667 234.92 21.487C228.058 21.487 221.231 21.487 214.354 21.487C214.354 14.814 214.354 8.18299 214.354 1.48199ZM206.32 21.508C206.149 21.505 205.931 21.281 205.823 21.105C205.561 20.679 205.27 20.244 205.136 19.771C204.74 18.377 203.827 18.119 202.493 18.166C199.56 18.27 196.62 18.212 193.684 18.187C193.138 18.182 192.84 18.351 192.599 18.851C192.167 19.75 191.85 20.943 191.113 21.387C190.373 21.833 189.178 21.521 188.182 21.528C187.158 21.537 186.134 21.53 184.963 21.53C185.138 21.14 185.254 20.852 185.393 20.576C188.46 14.459 191.54 8.34999 194.584 2.22199C194.893 1.59999 195.246 1.37899 195.93 1.39599C197.809 1.44499 199.69 1.38699 201.568 1.43799C201.892 1.44699 202.363 1.70199 202.504 1.97899C205.71 8.28799 208.881 14.617 212.056 20.943C212.131 21.094 212.178 21.259 212.279 21.526C210.232 21.526 208.276 21.536 206.32 21.508ZM198.617 7.16699C197.551 9.22899 196.581 11.104 195.555 13.09C197.678 13.09 199.598 13.09 201.715 13.09C200.661 11.074 199.686 9.21099 198.617 7.16699ZM163.089 1.46799C164.982 1.46799 166.848 1.46799 168.792 1.46799C168.792 6.29699 168.792 11.102 168.792 16.018C173.782 16.018 178.697 16.018 183.672 16.018C183.672 17.886 183.672 19.645 183.672 21.503C176.789 21.503 169.976 21.503 163.089 21.503C163.089 14.833 163.089 8.17799 163.089 1.46799ZM153.746 16.387C150.923 16.668 148.061 16.569 145.216 16.636C144.811 16.646 144.405 16.638 143.878 16.638C143.878 18.354 143.878 19.913 143.878 21.55C141.95 21.55 140.09 21.55 138.151 21.55C138.151 14.879 138.151 8.20099 138.151 1.46199C138.456 1.44499 138.741 1.41499 139.026 1.41499C142.931 1.41199 146.837 1.38699 150.742 1.42899C151.968 1.44299 153.211 1.54299 154.415 1.77399C159.235 2.69499 160.695 6.21399 160.24 10.21C159.827 13.833 157.629 16.001 153.746 16.387ZM153.547 7.11199C153.117 6.83399 152.572 6.59499 152.076 6.58599C149.383 6.53499 146.688 6.56099 143.933 6.56099C143.933 8.20699 143.933 9.84099 143.933 11.461C146.738 11.461 149.489 11.48 152.24 11.442C152.654 11.436 153.103 11.23 153.471 11.008C154.85 10.174 154.9 7.98999 153.547 7.11199ZM129.736 21.499C129.44 21.489 129.126 21.188 128.871 20.962C124.784 17.355 120.706 13.738 116.625 10.124C116.495 10.009 116.357 9.90199 116.069 9.66299C116.069 13.673 116.069 17.538 116.069 21.466C114.071 21.466 112.21 21.466 110.279 21.466C110.279 14.835 110.279 8.20199 110.279 1.43999C111.836 1.43999 113.407 1.41799 114.977 1.46299C115.217 1.46999 115.464 1.76499 115.682 1.95699C119.706 5.50099 123.726 9.05099 127.747 12.597C127.962 12.787 128.188 12.964 128.585 13.293C128.585 9.22599 128.585 5.39199 128.585 1.48599C130.528 1.48599 132.412 1.48599 134.344 1.48599C134.344 8.16599 134.344 14.8 134.344 21.525C132.775 21.525 131.254 21.554 129.736 21.499ZM98.255 21.8C95.156 22.365 92.044 22.284 89.011 21.333C85.086 20.102 82.673 16.972 82.573 12.852C82.485 9.24799 82.544 5.63999 82.542 2.03399C82.542 1.89299 82.58 1.75299 82.614 1.51299C84.394 1.51299 86.149 1.49399 87.902 1.54699C88.057 1.55199 88.322 2.03599 88.325 2.29999C88.355 5.28499 88.344 8.27099 88.345 11.257C88.345 11.611 88.34 11.966 88.353 12.321C88.421 14.222 89.316 15.514 91.124 16.109C93.451 16.874 95.816 16.872 98.142 16.101C99.959 15.498 100.883 14.169 100.899 12.211C100.926 9.01899 100.909 5.82699 100.91 2.63399C100.91 2.31099 100.91 1.98699 100.91 1.58399C102.845 1.58399 104.73 1.58399 106.716 1.58399C106.716 1.93799 106.716 2.25499 106.716 2.57099C106.716 5.55599 106.718 8.54199 106.716 11.528C106.712 17.422 104.015 20.749 98.255 21.8ZM61.024 21.487C54.96 19.982 52.86 15.507 53.388 10.155C53.823 5.73599 56.308 2.96799 60.514 1.80699C64.778 0.629991 69.063 0.664991 73.291 2.00599C76.005 2.86699 78.027 4.56699 79.076 7.30399C79.139 7.46899 79.195 7.63699 79.244 7.80699C79.275 7.91799 79.287 8.03399 79.334 8.29799C77.213 8.29799 75.19 8.30199 73.168 8.28799C73.014 8.28699 72.816 8.19299 72.713 8.07599C71.509 6.70599 69.881 6.34099 68.193 6.17699C66.252 5.98899 64.312 6.03499 62.436 6.64899C60.177 7.38799 59.129 8.94799 59.117 11.505C59.104 14.145 60.108 15.737 62.409 16.454C65.115 17.298 67.857 17.297 70.567 16.438C71.806 16.046 72.831 15.34 73.42 13.959C70.903 13.959 68.46 13.959 65.951 13.959C65.951 12.429 65.951 10.998 65.951 9.47399C66.267 9.45899 66.578 9.43199 66.888 9.43099C70.767 9.42799 74.646 9.42899 78.525 9.42899C79.703 9.42999 79.703 9.43099 79.786 10.654C80.176 16.383 77.334 20.279 71.769 21.554C68.191 22.374 64.582 22.37 61.024 21.487ZM44.962 14.67C44.826 14.849 44.714 15.066 44.629 15.295H38.268C37.971 14.543 37.522 13.832 36.939 13.124C35.077 10.862 33.29 8.53699 31.511 6.20699H38.151C39.24 7.59199 40.338 8.99299 41.46 10.42C41.735 10.104 41.984 9.83899 42.208 9.55499C44.202 7.03599 46.176 4.49999 48.2 2.00599C48.451 1.69699 48.96 1.45499 49.359 1.43899C51.001 1.37699 52.647 1.41099 54.292 1.41599C54.513 1.41699 54.734 1.45799 55.073 1.49199C54.829 1.83799 54.657 2.09899 54.467 2.34599C51.294 6.44999 48.107 10.544 44.962 14.67ZM23.238 9.89799C20.243 13.065 17.435 16.033 14.558 19.075C11.681 16.047 8.85304 13.069 5.85704 9.91399C5.85704 13.906 5.85704 17.665 5.85704 21.473C3.88504 21.473 2.01904 21.473 0.092041 21.473C0.092041 14.824 0.092041 8.18999 0.092041 1.42499C1.62904 1.42499 3.17204 1.39399 4.71104 1.45399C4.99204 1.46499 5.29104 1.81799 5.52804 2.06499C8.32304 4.97999 11.109 7.90299 13.888 10.834C14.087 11.044 14.207 11.329 14.363 11.58C14.488 11.577 14.612 11.575 14.736 11.572C14.936 11.282 15.104 10.959 15.343 10.706C18.077 7.81399 20.833 4.94299 23.552 2.03699C23.1 1.55899 24.45 1.37399 25.087 1.39499C26.37 1.43599 27.655 1.40699 28.993 1.40699C28.993 8.14999 28.993 14.784 28.993 21.472C27.092 21.472 25.228 21.472 23.238 21.472C23.238 17.674 23.238 13.915 23.238 9.89799ZM38.613 16.567H44.436C44.391 18.177 44.421 19.792 44.421 21.464C42.489 21.464 40.626 21.464 38.615 21.464C38.615 20.409 38.514 19.32 38.636 18.257C38.705 17.658 38.694 17.099 38.613 16.567Z" fill="white"/>
</g>
<defs>
<clipPath id="clip0_141_235">
<rect width="296" height="23" fill="white"/>
</clipPath>
</defs>
</svg>
