<svg width="360" height="109" viewBox="0 0 360 109" fill="none" xmlns="http://www.w3.org/2000/svg">
<path d="M360 0H0V108.191H2.267C11.767 108.191 20.78 103.996 26.887 96.731L37.413 84.208C48.65 70.838 58.618 70 72.01 70H288.99C302.382 70 312.35 70.838 323.588 84.208L334.114 96.731C340.22 103.996 349.233 108.191 358.733 108.191H360V0Z" fill="#F00D32"/>
<path d="M206.32 42C206.232 42 206.164 41.976 206.116 41.928C206.068 41.872 206.044 41.804 206.044 41.724V33.888C206.044 33.8 206.068 33.732 206.116 33.684C206.164 33.628 206.232 33.6 206.32 33.6H209.608C210.208 33.6 210.696 33.7 211.072 33.9C211.456 34.092 211.736 34.356 211.912 34.692C212.096 35.028 212.188 35.404 212.188 35.82C212.188 36.148 212.132 36.432 212.02 36.672C211.916 36.904 211.784 37.096 211.624 37.248C211.464 37.392 211.308 37.504 211.156 37.584C211.468 37.736 211.744 37.984 211.984 38.328C212.232 38.672 212.356 39.088 212.356 39.576C212.356 40.016 212.256 40.42 212.056 40.788C211.856 41.156 211.556 41.452 211.156 41.676C210.764 41.892 210.276 42 209.692 42H206.32ZM207.22 41.028H209.536C210.056 41.028 210.456 40.888 210.736 40.608C211.016 40.328 211.156 39.984 211.156 39.576C211.156 39.152 211.016 38.804 210.736 38.532C210.456 38.252 210.056 38.112 209.536 38.112H207.22V41.028ZM207.22 37.152H209.428C209.94 37.152 210.328 37.036 210.592 36.804C210.856 36.564 210.988 36.24 210.988 35.832C210.988 35.424 210.856 35.112 210.592 34.896C210.328 34.68 209.94 34.572 209.428 34.572H207.22V37.152ZM216.334 42C216.254 42 216.186 41.976 216.13 41.928C216.082 41.872 216.058 41.804 216.058 41.724V38.892L213.166 33.996C213.158 33.972 213.15 33.948 213.142 33.924C213.134 33.9 213.13 33.872 213.13 33.84C213.13 33.776 213.154 33.72 213.202 33.672C213.25 33.624 213.306 33.6 213.37 33.6H213.994C214.066 33.6 214.13 33.62 214.186 33.66C214.242 33.692 214.282 33.74 214.306 33.804L216.646 37.692L218.986 33.804C219.026 33.74 219.07 33.692 219.118 33.66C219.174 33.62 219.238 33.6 219.31 33.6H219.922C219.994 33.6 220.054 33.624 220.102 33.672C220.15 33.72 220.174 33.776 220.174 33.84C220.174 33.872 220.17 33.9 220.162 33.924C220.154 33.948 220.142 33.972 220.126 33.996L217.246 38.892V41.724C217.246 41.804 217.218 41.872 217.162 41.928C217.114 41.976 217.046 42 216.958 42H216.334ZM224.449 42C224.361 42 224.293 41.976 224.245 41.928C224.197 41.872 224.173 41.804 224.173 41.724V33.888C224.173 33.8 224.197 33.732 224.245 33.684C224.293 33.628 224.361 33.6 224.449 33.6H227.377C228.281 33.6 228.997 33.812 229.525 34.236C230.053 34.66 230.317 35.288 230.317 36.12C230.317 36.736 230.161 37.24 229.849 37.632C229.545 38.016 229.129 38.284 228.601 38.436L230.449 41.628C230.473 41.676 230.485 41.72 230.485 41.76C230.485 41.824 230.457 41.88 230.401 41.928C230.353 41.976 230.297 42 230.233 42H229.657C229.521 42 229.421 41.964 229.357 41.892C229.293 41.82 229.237 41.748 229.189 41.676L227.449 38.628H225.349V41.724C225.349 41.804 225.321 41.872 225.265 41.928C225.217 41.976 225.149 42 225.061 42H224.449ZM225.349 37.608H227.329C227.929 37.608 228.377 37.484 228.673 37.236C228.969 36.98 229.117 36.604 229.117 36.108C229.117 35.62 228.969 35.248 228.673 34.992C228.385 34.736 227.937 34.608 227.329 34.608H225.349V37.608ZM232.312 42C232.224 42 232.156 41.976 232.108 41.928C232.06 41.872 232.036 41.804 232.036 41.724V33.876C232.036 33.796 232.06 33.732 232.108 33.684C232.156 33.628 232.224 33.6 232.312 33.6H232.948C233.028 33.6 233.092 33.628 233.14 33.684C233.196 33.732 233.224 33.796 233.224 33.876V41.724C233.224 41.804 233.196 41.872 233.14 41.928C233.092 41.976 233.028 42 232.948 42H232.312ZM238.017 42.12C237.321 42.12 236.737 42.016 236.265 41.808C235.793 41.592 235.429 41.316 235.173 40.98C234.925 40.636 234.793 40.272 234.777 39.888C234.777 39.824 234.801 39.768 234.849 39.72C234.905 39.664 234.969 39.636 235.041 39.636H235.653C235.749 39.636 235.821 39.66 235.869 39.708C235.917 39.756 235.949 39.812 235.965 39.876C236.005 40.068 236.101 40.26 236.253 40.452C236.413 40.636 236.633 40.792 236.913 40.92C237.201 41.04 237.569 41.1 238.017 41.1C238.705 41.1 239.209 40.98 239.529 40.74C239.857 40.492 240.021 40.164 240.021 39.756C240.021 39.476 239.933 39.252 239.757 39.084C239.589 38.908 239.329 38.752 238.977 38.616C238.625 38.48 238.169 38.332 237.609 38.172C237.025 38.004 236.541 37.82 236.157 37.62C235.773 37.42 235.485 37.172 235.293 36.876C235.109 36.58 235.017 36.204 235.017 35.748C235.017 35.316 235.133 34.932 235.365 34.596C235.597 34.252 235.929 33.98 236.361 33.78C236.801 33.58 237.333 33.48 237.957 33.48C238.453 33.48 238.885 33.548 239.253 33.684C239.629 33.812 239.941 33.988 240.189 34.212C240.437 34.428 240.625 34.664 240.753 34.92C240.881 35.168 240.949 35.412 240.957 35.652C240.957 35.708 240.937 35.764 240.897 35.82C240.857 35.868 240.793 35.892 240.705 35.892H240.069C240.013 35.892 239.953 35.876 239.889 35.844C239.833 35.812 239.789 35.752 239.757 35.664C239.709 35.336 239.525 35.06 239.205 34.836C238.885 34.612 238.469 34.5 237.957 34.5C237.437 34.5 237.013 34.6 236.685 34.8C236.365 35 236.205 35.312 236.205 35.736C236.205 36.008 236.281 36.236 236.433 36.42C236.585 36.596 236.825 36.752 237.153 36.888C237.481 37.024 237.909 37.168 238.437 37.32C239.077 37.496 239.601 37.684 240.009 37.884C240.417 38.076 240.717 38.32 240.909 38.616C241.109 38.904 241.209 39.276 241.209 39.732C241.209 40.236 241.077 40.668 240.813 41.028C240.549 41.38 240.177 41.652 239.697 41.844C239.225 42.028 238.665 42.12 238.017 42.12ZM243.058 42C242.97 42 242.902 41.976 242.854 41.928C242.806 41.872 242.782 41.804 242.782 41.724V33.888C242.782 33.8 242.806 33.732 242.854 33.684C242.902 33.628 242.97 33.6 243.058 33.6H248.014C248.102 33.6 248.17 33.628 248.218 33.684C248.266 33.732 248.29 33.8 248.29 33.888V34.344C248.29 34.432 248.266 34.5 248.218 34.548C248.17 34.596 248.102 34.62 248.014 34.62H243.934V37.248H247.75C247.838 37.248 247.906 37.276 247.954 37.332C248.002 37.38 248.026 37.448 248.026 37.536V37.98C248.026 38.06 248.002 38.128 247.954 38.184C247.906 38.232 247.838 38.256 247.75 38.256H243.934V40.98H248.11C248.198 40.98 248.266 41.004 248.314 41.052C248.362 41.1 248.386 41.168 248.386 41.256V41.724C248.386 41.804 248.362 41.872 248.314 41.928C248.266 41.976 248.198 42 248.11 42H243.058ZM252.99 42.12C252.31 42.12 251.726 42.004 251.238 41.772C250.75 41.532 250.374 41.168 250.11 40.68C249.846 40.184 249.698 39.564 249.666 38.82C249.658 38.468 249.654 38.132 249.654 37.812C249.654 37.484 249.658 37.144 249.666 36.792C249.698 36.056 249.85 35.444 250.122 34.956C250.402 34.46 250.786 34.092 251.274 33.852C251.77 33.604 252.342 33.48 252.99 33.48C253.646 33.48 254.218 33.604 254.706 33.852C255.202 34.092 255.59 34.46 255.87 34.956C256.15 35.444 256.302 36.056 256.326 36.792C256.342 37.144 256.35 37.484 256.35 37.812C256.35 38.132 256.342 38.468 256.326 38.82C256.302 39.564 256.154 40.184 255.882 40.68C255.618 41.168 255.242 41.532 254.754 41.772C254.266 42.004 253.678 42.12 252.99 42.12ZM252.99 41.1C253.606 41.1 254.106 40.916 254.49 40.548C254.882 40.18 255.094 39.584 255.126 38.76C255.142 38.4 255.15 38.08 255.15 37.8C255.15 37.512 255.142 37.192 255.126 36.84C255.11 36.288 255.006 35.84 254.814 35.496C254.63 35.152 254.382 34.9 254.07 34.74C253.758 34.58 253.398 34.5 252.99 34.5C252.598 34.5 252.246 34.58 251.934 34.74C251.622 34.9 251.37 35.152 251.178 35.496C250.994 35.84 250.89 36.288 250.866 36.84C250.858 37.192 250.854 37.512 250.854 37.8C250.854 38.08 250.858 38.4 250.866 38.76C250.898 39.584 251.11 40.18 251.502 40.548C251.894 40.916 252.39 41.1 252.99 41.1ZM258.375 42C258.287 42 258.219 41.976 258.171 41.928C258.123 41.872 258.099 41.804 258.099 41.724V33.888C258.099 33.8 258.123 33.732 258.171 33.684C258.219 33.628 258.287 33.6 258.375 33.6H263.271C263.359 33.6 263.427 33.628 263.475 33.684C263.523 33.732 263.547 33.8 263.547 33.888V34.368C263.547 34.456 263.523 34.524 263.475 34.572C263.427 34.62 263.359 34.644 263.271 34.644H259.263V37.44H263.031C263.119 37.44 263.187 37.468 263.235 37.524C263.283 37.572 263.307 37.64 263.307 37.728V38.208C263.307 38.288 263.283 38.356 263.235 38.412C263.187 38.46 263.119 38.484 263.031 38.484H259.263V41.724C259.263 41.804 259.235 41.872 259.179 41.928C259.131 41.976 259.063 42 258.975 42H258.375ZM268.096 42.12C267.392 42.12 266.792 41.988 266.296 41.724C265.808 41.46 265.432 41.088 265.168 40.608C264.912 40.128 264.768 39.564 264.736 38.916C264.728 38.564 264.724 38.192 264.724 37.8C264.724 37.4 264.728 37.02 264.736 36.66C264.768 36.012 264.912 35.452 265.168 34.98C265.432 34.508 265.812 34.14 266.308 33.876C266.804 33.612 267.4 33.48 268.096 33.48C268.664 33.48 269.156 33.56 269.572 33.72C269.988 33.88 270.328 34.084 270.592 34.332C270.864 34.572 271.064 34.824 271.192 35.088C271.328 35.352 271.4 35.584 271.408 35.784C271.416 35.856 271.396 35.916 271.348 35.964C271.3 36.004 271.236 36.024 271.156 36.024H270.448C270.368 36.024 270.308 36.008 270.268 35.976C270.236 35.944 270.204 35.888 270.172 35.808C270.1 35.6 269.98 35.396 269.812 35.196C269.652 34.996 269.432 34.832 269.152 34.704C268.88 34.568 268.528 34.5 268.096 34.5C267.464 34.5 266.952 34.672 266.56 35.016C266.176 35.36 265.968 35.928 265.936 36.72C265.912 37.432 265.912 38.144 265.936 38.856C265.968 39.656 266.18 40.232 266.572 40.584C266.964 40.928 267.476 41.1 268.108 41.1C268.532 41.1 268.908 41.024 269.236 40.872C269.572 40.712 269.836 40.468 270.028 40.14C270.22 39.812 270.316 39.396 270.316 38.892V38.388H268.516C268.436 38.388 268.368 38.364 268.312 38.316C268.264 38.26 268.24 38.188 268.24 38.1V37.716C268.24 37.628 268.264 37.56 268.312 37.512C268.368 37.456 268.436 37.428 268.516 37.428H271.228C271.316 37.428 271.384 37.456 271.432 37.512C271.48 37.56 271.504 37.628 271.504 37.716V38.868C271.504 39.524 271.368 40.096 271.096 40.584C270.832 41.072 270.444 41.452 269.932 41.724C269.42 41.988 268.808 42.12 268.096 42.12ZM276.384 42.12C275.712 42.12 275.132 42 274.644 41.76C274.164 41.52 273.792 41.156 273.528 40.668C273.272 40.172 273.144 39.536 273.144 38.76V33.888C273.144 33.8 273.168 33.732 273.216 33.684C273.264 33.628 273.332 33.6 273.42 33.6H274.032C274.12 33.6 274.188 33.628 274.236 33.684C274.292 33.732 274.32 33.8 274.32 33.888V38.784C274.32 39.568 274.504 40.148 274.872 40.524C275.24 40.9 275.744 41.088 276.384 41.088C277.016 41.088 277.516 40.9 277.884 40.524C278.26 40.148 278.448 39.568 278.448 38.784V33.888C278.448 33.8 278.472 33.732 278.52 33.684C278.576 33.628 278.644 33.6 278.724 33.6H279.348C279.428 33.6 279.492 33.628 279.54 33.684C279.596 33.732 279.624 33.8 279.624 33.888V38.76C279.624 39.536 279.492 40.172 279.228 40.668C278.972 41.156 278.604 41.52 278.124 41.76C277.644 42 277.064 42.12 276.384 42.12ZM281.906 42C281.818 42 281.75 41.976 281.702 41.928C281.654 41.872 281.63 41.804 281.63 41.724V33.888C281.63 33.8 281.654 33.732 281.702 33.684C281.75 33.628 281.818 33.6 281.906 33.6H282.458C282.554 33.6 282.626 33.624 282.674 33.672C282.722 33.712 282.75 33.744 282.758 33.768L286.742 39.888V33.888C286.742 33.8 286.766 33.732 286.814 33.684C286.862 33.628 286.93 33.6 287.018 33.6H287.594C287.682 33.6 287.75 33.628 287.798 33.684C287.854 33.732 287.882 33.8 287.882 33.888V41.712C287.882 41.792 287.854 41.86 287.798 41.916C287.75 41.972 287.686 42 287.606 42H287.03C286.942 42 286.874 41.976 286.826 41.928C286.786 41.88 286.758 41.848 286.742 41.832L282.77 35.772V41.724C282.77 41.804 282.742 41.872 282.686 41.928C282.638 41.976 282.57 42 282.482 42H281.906ZM290.238 42C290.15 42 290.082 41.976 290.034 41.928C289.986 41.872 289.962 41.804 289.962 41.724V33.888C289.962 33.8 289.986 33.732 290.034 33.684C290.082 33.628 290.15 33.6 290.238 33.6H293.286C293.878 33.6 294.39 33.696 294.822 33.888C295.262 34.08 295.602 34.368 295.842 34.752C296.082 35.128 296.202 35.6 296.202 36.168C296.202 36.736 296.082 37.208 295.842 37.584C295.602 37.96 295.262 38.244 294.822 38.436C294.39 38.628 293.878 38.724 293.286 38.724H291.162V41.724C291.162 41.804 291.134 41.872 291.078 41.928C291.03 41.976 290.962 42 290.874 42H290.238ZM291.15 37.716H293.226C293.818 37.716 294.262 37.584 294.558 37.32C294.854 37.056 295.002 36.672 295.002 36.168C295.002 35.672 294.858 35.288 294.57 35.016C294.282 34.744 293.834 34.608 293.226 34.608H291.15V37.716ZM297.937 42C297.849 42 297.781 41.976 297.733 41.928C297.685 41.872 297.661 41.804 297.661 41.724V33.876C297.661 33.796 297.685 33.732 297.733 33.684C297.781 33.628 297.849 33.6 297.937 33.6H298.573C298.653 33.6 298.717 33.628 298.765 33.684C298.813 33.732 298.837 33.796 298.837 33.876V40.956H302.833C302.921 40.956 302.989 40.984 303.037 41.04C303.085 41.088 303.109 41.156 303.109 41.244V41.724C303.109 41.804 303.085 41.872 303.037 41.928C302.989 41.976 302.921 42 302.833 42H297.937ZM303.859 42C303.795 42 303.739 41.976 303.691 41.928C303.643 41.88 303.619 41.824 303.619 41.76C303.619 41.72 303.623 41.676 303.631 41.628L306.607 33.864C306.639 33.784 306.683 33.72 306.739 33.672C306.795 33.624 306.879 33.6 306.991 33.6H307.807C307.911 33.6 307.991 33.624 308.047 33.672C308.111 33.72 308.159 33.784 308.191 33.864L311.155 41.628C311.171 41.676 311.179 41.72 311.179 41.76C311.179 41.824 311.155 41.88 311.107 41.928C311.059 41.976 311.003 42 310.939 42H310.327C310.231 42 310.159 41.976 310.111 41.928C310.071 41.88 310.043 41.836 310.027 41.796L309.367 40.092H305.431L304.771 41.796C304.763 41.836 304.735 41.88 304.687 41.928C304.639 41.976 304.567 42 304.471 42H303.859ZM305.779 39.06H309.019L307.399 34.8L305.779 39.06ZM312.498 42C312.418 42 312.35 41.976 312.294 41.928C312.246 41.872 312.222 41.804 312.222 41.724V40.86C312.222 40.78 312.246 40.716 312.294 40.668C312.35 40.612 312.418 40.584 312.498 40.584H313.362C313.442 40.584 313.506 40.612 313.554 40.668C313.61 40.716 313.638 40.78 313.638 40.86V41.724C313.638 41.804 313.61 41.872 313.554 41.928C313.506 41.976 313.442 42 313.362 42H312.498ZM318.322 42.12C317.586 42.12 316.974 41.984 316.486 41.712C316.006 41.44 315.642 41.06 315.394 40.572C315.146 40.084 315.01 39.516 314.986 38.868C314.978 38.54 314.974 38.188 314.974 37.812C314.974 37.436 314.978 37.076 314.986 36.732C315.01 36.084 315.146 35.516 315.394 35.028C315.642 34.54 316.006 34.16 316.486 33.888C316.974 33.616 317.586 33.48 318.322 33.48C318.874 33.48 319.358 33.556 319.774 33.708C320.19 33.86 320.534 34.064 320.806 34.32C321.086 34.576 321.298 34.864 321.442 35.184C321.586 35.496 321.666 35.82 321.682 36.156C321.69 36.228 321.666 36.288 321.61 36.336C321.562 36.384 321.502 36.408 321.43 36.408H320.77C320.698 36.408 320.634 36.388 320.578 36.348C320.53 36.308 320.494 36.236 320.47 36.132C320.334 35.508 320.078 35.08 319.702 34.848C319.334 34.616 318.87 34.5 318.31 34.5C317.67 34.5 317.162 34.684 316.786 35.052C316.41 35.412 316.206 35.992 316.174 36.792C316.15 37.448 316.15 38.12 316.174 38.808C316.206 39.608 316.41 40.192 316.786 40.56C317.162 40.92 317.67 41.1 318.31 41.1C318.87 41.1 319.334 40.984 319.702 40.752C320.078 40.52 320.334 40.092 320.47 39.468C320.494 39.364 320.53 39.292 320.578 39.252C320.634 39.212 320.698 39.192 320.77 39.192H321.43C321.502 39.192 321.562 39.216 321.61 39.264C321.666 39.312 321.69 39.372 321.682 39.444C321.666 39.78 321.586 40.108 321.442 40.428C321.298 40.74 321.086 41.024 320.806 41.28C320.534 41.536 320.19 41.74 319.774 41.892C319.358 42.044 318.874 42.12 318.322 42.12ZM326.302 42.12C325.622 42.12 325.038 42.004 324.55 41.772C324.062 41.532 323.686 41.168 323.422 40.68C323.158 40.184 323.01 39.564 322.978 38.82C322.97 38.468 322.966 38.132 322.966 37.812C322.966 37.484 322.97 37.144 322.978 36.792C323.01 36.056 323.162 35.444 323.434 34.956C323.714 34.46 324.098 34.092 324.586 33.852C325.082 33.604 325.654 33.48 326.302 33.48C326.958 33.48 327.53 33.604 328.018 33.852C328.514 34.092 328.902 34.46 329.182 34.956C329.462 35.444 329.614 36.056 329.638 36.792C329.654 37.144 329.662 37.484 329.662 37.812C329.662 38.132 329.654 38.468 329.638 38.82C329.614 39.564 329.466 40.184 329.194 40.68C328.93 41.168 328.554 41.532 328.066 41.772C327.578 42.004 326.99 42.12 326.302 42.12ZM326.302 41.1C326.918 41.1 327.418 40.916 327.802 40.548C328.194 40.18 328.406 39.584 328.438 38.76C328.454 38.4 328.462 38.08 328.462 37.8C328.462 37.512 328.454 37.192 328.438 36.84C328.422 36.288 328.318 35.84 328.126 35.496C327.942 35.152 327.694 34.9 327.382 34.74C327.07 34.58 326.71 34.5 326.302 34.5C325.91 34.5 325.558 34.58 325.246 34.74C324.934 34.9 324.682 35.152 324.49 35.496C324.306 35.84 324.202 36.288 324.178 36.84C324.17 37.192 324.166 37.512 324.166 37.8C324.166 38.08 324.17 38.4 324.178 38.76C324.21 39.584 324.422 40.18 324.814 40.548C325.206 40.916 325.702 41.1 326.302 41.1ZM331.687 42C331.607 42 331.539 41.976 331.483 41.928C331.435 41.872 331.411 41.804 331.411 41.724V33.888C331.411 33.8 331.435 33.732 331.483 33.684C331.539 33.628 331.607 33.6 331.687 33.6H332.287C332.383 33.6 332.455 33.624 332.503 33.672C332.551 33.72 332.579 33.76 332.587 33.792L335.131 38.64L337.687 33.792C337.703 33.76 337.731 33.72 337.771 33.672C337.819 33.624 337.891 33.6 337.987 33.6H338.575C338.663 33.6 338.731 33.628 338.779 33.684C338.835 33.732 338.863 33.8 338.863 33.888V41.724C338.863 41.804 338.835 41.872 338.779 41.928C338.731 41.976 338.663 42 338.575 42H337.987C337.907 42 337.839 41.976 337.783 41.928C337.735 41.872 337.711 41.804 337.711 41.724V35.82L335.707 39.732C335.675 39.812 335.627 39.876 335.563 39.924C335.499 39.964 335.419 39.984 335.323 39.984H334.951C334.847 39.984 334.763 39.964 334.699 39.924C334.643 39.876 334.595 39.812 334.555 39.732L332.551 35.82V41.724C332.551 41.804 332.523 41.872 332.467 41.928C332.419 41.976 332.355 42 332.275 42H331.687Z" fill="white"/>
<g clip-path="url(#clip0_100_419)">
<path fill-rule="evenodd" clip-rule="evenodd" d="M163.528 36.6307C163.528 38.4349 163.528 40.1983 163.528 41.9813C162.806 41.9813 162.113 41.9813 161.365 41.9813C161.365 40.1905 161.365 38.4271 161.365 36.6288C160.236 36.6288 159.139 36.6288 158.02 36.6288C158.02 35.9194 158.02 35.2449 158.02 34.5478C161.004 34.5478 163.976 34.5478 166.966 34.5478C166.966 35.2408 166.966 35.9153 166.966 36.6307C165.817 36.6307 164.687 36.6307 163.528 36.6307ZM154.791 42.101C153.33 42.2797 151.869 42.3057 150.432 41.9256C149.385 41.6483 148.663 41.0359 148.527 39.8857C148.513 39.7679 148.514 39.6479 148.507 39.4952C148.632 39.4862 148.736 39.4729 148.841 39.4725C149.332 39.4703 149.824 39.4799 150.315 39.4677C150.54 39.4621 150.666 39.5052 150.715 39.7653C150.779 40.1043 151.078 40.2477 151.376 40.2667C152.256 40.3228 153.138 40.3544 154.02 40.3614C154.32 40.3636 154.625 40.2808 154.92 40.2064C155.157 40.147 155.33 39.9931 155.328 39.7178C155.326 39.4286 155.149 39.2573 154.892 39.2202C154.332 39.1395 153.767 39.0879 153.204 39.0355C152.367 38.9578 151.53 38.8969 150.694 38.8136C150.479 38.7921 150.266 38.7226 150.058 38.6594C149.081 38.3625 148.622 37.8203 148.579 36.9247C148.529 35.8655 148.949 35.0955 149.903 34.7782C150.6 34.5466 151.343 34.4114 152.075 34.3452C153.33 34.2319 154.588 34.2705 155.804 34.6752C156.716 34.9792 157.28 35.5846 157.396 36.5672C157.41 36.6857 157.41 36.8061 157.419 36.9648C156.691 36.9648 156.006 36.9648 155.288 36.9648C155.222 36.3498 154.752 36.2156 154.256 36.2004C153.363 36.1729 152.468 36.1885 151.575 36.2067C151.385 36.2108 151.169 36.2617 151.017 36.3669C150.886 36.4572 150.758 36.6549 150.758 36.8054C150.758 36.9365 150.913 37.1339 151.044 37.1848C151.304 37.2851 151.593 37.3305 151.873 37.3531C152.918 37.4375 153.966 37.4862 155.009 37.5854C155.406 37.6229 155.802 37.7363 156.185 37.8574C156.931 38.0934 157.389 38.6022 157.471 39.3989C157.557 40.2347 157.374 40.9764 156.639 41.4852C156.083 41.8695 155.445 42.0211 154.791 42.101ZM145.289 34.547C145.998 34.547 146.69 34.547 147.402 34.547C147.402 37.0313 147.402 39.497 147.402 41.9821C146.694 41.9821 146.001 41.9821 145.289 41.9821C145.289 39.5 145.289 37.0347 145.289 34.547ZM136.659 34.5507C137.364 34.5507 138.064 34.5507 138.794 34.5507C138.794 36.3553 138.794 38.1399 138.794 39.9567C140.641 39.9567 142.458 39.9567 144.302 39.9567C144.302 40.6487 144.302 41.3087 144.302 41.985C141.751 41.985 139.214 41.985 136.659 41.985C136.659 39.5052 136.659 37.041 136.659 34.5507ZM133.673 41.9928C133.61 41.9917 133.529 41.9085 133.488 41.8431C133.391 41.6848 133.283 41.5231 133.233 41.3473C133.086 40.8293 132.747 40.7334 132.251 40.7509C131.161 40.7895 130.068 40.768 128.977 40.7587C128.774 40.7568 128.664 40.8196 128.574 41.0054C128.414 41.3395 128.296 41.7829 128.022 41.9479C127.747 42.1136 127.303 41.9977 126.933 42.0003C126.552 42.0036 126.172 42.001 125.736 42.001C125.801 41.8561 125.845 41.7491 125.896 41.6465C127.036 39.3733 128.181 37.103 129.312 34.8257C129.427 34.5946 129.558 34.5125 129.812 34.5188C130.51 34.537 131.209 34.5154 131.907 34.5344C132.028 34.5377 132.203 34.6325 132.255 34.7354C133.446 37.08 134.625 39.432 135.805 41.7829C135.833 41.839 135.85 41.9003 135.888 41.9995C135.127 41.9995 134.4 42.0032 133.673 41.9928ZM130.811 36.6634C130.414 37.4297 130.054 38.1265 129.673 38.8645C130.462 38.8645 131.175 38.8645 131.962 38.8645C131.57 38.1153 131.208 37.423 130.811 36.6634ZM117.608 34.5455C118.311 34.5455 119.004 34.5455 119.727 34.5455C119.727 36.3401 119.727 38.1257 119.727 39.9526C121.581 39.9526 123.408 39.9526 125.257 39.9526C125.257 40.6468 125.257 41.3005 125.257 41.991C122.699 41.991 120.167 41.991 117.608 41.991C117.608 39.5123 117.608 37.0391 117.608 34.5455ZM114.135 40.0898C113.086 40.1942 112.023 40.1574 110.966 40.1823C110.815 40.186 110.664 40.183 110.468 40.183C110.468 40.8207 110.468 41.4001 110.468 42.0084C109.752 42.0084 109.061 42.0084 108.34 42.0084C108.34 39.5294 108.34 37.0477 108.34 34.5433C108.453 34.537 108.559 34.5258 108.665 34.5258C110.116 34.5247 111.568 34.5154 113.019 34.531C113.475 34.5362 113.937 34.5734 114.384 34.6593C116.175 35.0015 116.718 36.3093 116.549 37.7943C116.395 39.1406 115.578 39.9463 114.135 40.0898ZM114.061 36.643C113.902 36.5397 113.699 36.4508 113.515 36.4475C112.514 36.4285 111.513 36.4382 110.489 36.4382C110.489 37.0499 110.489 37.6571 110.489 38.2592C111.531 38.2592 112.553 38.2662 113.576 38.2521C113.73 38.2499 113.896 38.1733 114.033 38.0908C114.546 37.7809 114.564 36.9693 114.061 36.643ZM105.213 41.9895C105.103 41.9858 104.986 41.8739 104.891 41.7899C103.373 40.4495 101.857 39.1053 100.34 37.7623C100.292 37.7196 100.241 37.6798 100.134 37.591C100.134 39.0812 100.134 40.5175 100.134 41.9772C99.3913 41.9772 98.6997 41.9772 97.9821 41.9772C97.9821 39.513 97.9821 37.048 97.9821 34.5351C98.5608 34.5351 99.1446 34.527 99.728 34.5437C99.8172 34.5463 99.909 34.6559 99.99 34.7273C101.485 36.0443 102.979 37.3635 104.474 38.6813C104.554 38.7519 104.638 38.8177 104.785 38.94C104.785 37.4286 104.785 36.0038 104.785 34.5522C105.507 34.5522 106.207 34.5522 106.925 34.5522C106.925 37.0347 106.925 39.5 106.925 41.9992C106.342 41.9992 105.777 42.0099 105.213 41.9895ZM93.5137 42.1013C92.3621 42.3113 91.2056 42.2812 90.0785 41.9278C88.6199 41.4703 87.7231 40.3072 87.686 38.7761C87.6533 37.4368 87.6752 36.0959 87.6744 34.7559C87.6744 34.7035 87.6886 34.6514 87.7012 34.5623C88.3627 34.5623 89.0149 34.5552 89.6663 34.5749C89.7239 34.5768 89.8224 34.7566 89.8235 34.8547C89.8347 35.964 89.8306 37.0737 89.831 38.1833C89.831 38.3149 89.8291 38.4468 89.8339 38.5787C89.8592 39.2852 90.1918 39.7653 90.8637 39.9864C91.7285 40.2707 92.6074 40.27 93.4718 39.9835C94.147 39.7594 94.4904 39.2655 94.4963 38.5379C94.5064 37.3517 94.5 36.1654 94.5004 34.9788C94.5004 34.8588 94.5004 34.7384 94.5004 34.5886C95.2195 34.5886 95.92 34.5886 96.658 34.5886C96.658 34.7202 96.658 34.838 96.658 34.9554C96.658 36.0647 96.6588 37.1744 96.658 38.284C96.6566 40.4744 95.6543 41.7108 93.5137 42.1013ZM79.6779 41.985C77.4244 41.4257 76.644 39.7627 76.8402 37.7738C77.0018 36.1316 77.9253 35.103 79.4884 34.6715C81.073 34.2341 82.6654 34.2471 84.2366 34.7455C85.2452 35.0654 85.9966 35.6972 86.3864 36.7143C86.4098 36.7756 86.4306 36.8381 86.4488 36.9012C86.4604 36.9425 86.4648 36.9856 86.4823 37.0837C85.6941 37.0837 84.9423 37.0852 84.1909 37.08C84.1336 37.0796 84.0601 37.0447 84.0218 37.0012C83.5743 36.4921 82.9693 36.3564 82.342 36.2955C81.6207 36.2256 80.8998 36.2427 80.2026 36.4709C79.3631 36.7455 78.9737 37.3253 78.9692 38.2755C78.9644 39.2566 79.3375 39.8482 80.1926 40.1147C81.1982 40.4283 82.2172 40.4279 83.2243 40.1087C83.6847 39.963 84.0656 39.7007 84.2845 39.1875C83.3491 39.1875 82.4413 39.1875 81.5089 39.1875C81.5089 38.6189 81.5089 38.0871 81.5089 37.5207C81.6263 37.5152 81.7419 37.5051 81.8571 37.5048C83.2986 37.5036 84.7401 37.504 86.1816 37.504C86.6194 37.5044 86.6194 37.5048 86.6503 37.9593C86.7952 40.0883 85.739 41.5361 83.671 42.0099C82.3413 42.3147 81.0001 42.3132 79.6779 41.985ZM73.7089 39.4517C73.6583 39.5182 73.6167 39.5988 73.5851 39.6839H71.2212C71.1109 39.4045 70.944 39.1403 70.7274 38.8772C70.0354 38.0365 69.3713 37.1725 68.7102 36.3066H71.1778C71.5825 36.8213 71.9905 37.342 72.4075 37.8723C72.5097 37.7549 72.6022 37.6564 72.6854 37.5508C73.4265 36.6147 74.16 35.6723 74.9122 34.7455C75.0055 34.6306 75.1946 34.5407 75.3429 34.5348C75.9531 34.5117 76.5648 34.5244 77.1761 34.5262C77.2583 34.5266 77.3404 34.5418 77.4664 34.5545C77.3757 34.683 77.3118 34.78 77.2412 34.8718C76.062 36.397 74.8776 37.9184 73.7089 39.4517ZM65.6358 37.6783C64.5228 38.8552 63.4792 39.9582 62.4101 41.0887C61.3409 39.9634 60.29 38.8567 59.1766 37.6843C59.1766 39.1678 59.1766 40.5647 59.1766 41.9798C58.4438 41.9798 57.7503 41.9798 57.0342 41.9798C57.0342 39.5089 57.0342 37.0436 57.0342 34.5296C57.6054 34.5296 58.1788 34.518 58.7507 34.5403C58.8551 34.5444 58.9663 34.6756 59.0543 34.7674C60.093 35.8507 61.1284 36.9369 62.1611 38.0261C62.235 38.1042 62.2796 38.2101 62.3376 38.3034C62.3841 38.3023 62.4302 38.3015 62.4762 38.3004C62.5506 38.1926 62.613 38.0726 62.7018 37.9786C63.7178 36.9038 64.742 35.8369 65.7525 34.757C65.5845 34.5794 66.0862 34.5106 66.3229 34.5184C66.7997 34.5336 67.2772 34.5229 67.7745 34.5229C67.7745 37.0287 67.7745 39.494 67.7745 41.9795C67.068 41.9795 66.3753 41.9795 65.6358 41.9795C65.6358 40.568 65.6358 39.1711 65.6358 37.6783ZM71.3495 40.1567H73.5134C73.4967 40.755 73.5078 41.3551 73.5078 41.9765C72.7899 41.9765 72.0975 41.9765 71.3502 41.9765C71.3502 41.5844 71.3127 41.1797 71.358 40.7847C71.3836 40.5621 71.3796 40.3544 71.3495 40.1567Z" fill="white"/>
</g>
<g clip-path="url(#clip1_100_419)">
<path fill-rule="evenodd" clip-rule="evenodd" d="M50.5823 44.1708C49.7807 46.0659 48.6334 47.7677 47.1721 49.2291C45.7108 50.6904 44.0089 51.8377 42.1139 52.6394C40.1517 53.4692 38.0676 53.8901 35.9193 53.8901C33.7712 53.8901 31.6871 53.4692 29.7249 52.6394C27.8299 51.8377 26.1282 50.6904 24.6667 49.2291C23.2054 47.7677 22.0581 46.0659 21.2566 44.1708C20.4265 42.2086 20.0057 40.1245 20.0057 37.9763C20.0057 35.8282 20.4265 33.7441 21.2566 31.7819C22.0581 29.8869 23.2054 28.1851 24.6667 26.7237C26.1282 25.2625 27.8299 24.1151 29.7249 23.3135C31.6871 22.4836 33.7712 22.0627 35.9193 22.0627C38.0676 22.0627 40.1517 22.4836 42.1139 23.3135C44.0089 24.1151 45.7108 25.2625 47.1721 26.7237C48.6334 28.1851 49.7807 29.8869 50.5823 31.7819C51.4123 33.7441 51.8331 35.8282 51.8331 37.9763C51.8331 40.1245 51.4123 42.2086 50.5823 44.1708ZM35.9193 22.9126C27.6132 22.9126 20.8557 29.6702 20.8557 37.9763C20.8557 46.2826 27.6132 53.0402 35.9193 53.0402C44.2256 53.0402 50.9831 46.2826 50.9831 37.9763C50.9831 29.6702 44.2256 22.9126 35.9193 22.9126ZM45.781 42.2244L44.6331 43.3837C43.5669 44.4606 41.8615 44.4843 40.8241 43.4365C39.7867 42.3887 39.8101 40.6663 40.8763 39.5893L37.3282 43.173C36.262 44.2498 34.5567 44.2734 33.5192 43.2257C32.4819 42.1778 32.5052 40.4554 33.5714 39.3786L29.8146 43.173C28.7484 44.2498 27.043 44.2734 26.0057 43.2257C24.9683 42.1778 24.9916 40.4554 26.0578 39.3786L34.5106 30.8411C35.5768 29.7643 37.2822 29.7407 38.3196 30.7885C39.3571 31.8363 39.3336 33.5587 38.2674 34.6355C39.3336 33.5587 41.039 33.5351 42.0764 34.5829C43.1138 35.6307 43.0904 37.3531 42.0242 38.43C43.0904 37.3531 44.7958 37.3295 45.8331 38.3772C46.8706 39.4251 46.8472 41.1475 45.781 42.2244Z" fill="white"/>
</g>
<defs>
<clipPath id="clip0_100_419">
<rect width="110" height="8.54732" fill="white" transform="translate(57 34)"/>
</clipPath>
<clipPath id="clip1_100_419">
<rect width="31.8828" height="32" fill="white" transform="translate(20 22)"/>
</clipPath>
</defs>
</svg>
