<svg width="147" height="32" viewBox="0 0 147 32" fill="none" xmlns="http://www.w3.org/2000/svg">
<g clip-path="url(#clip0_100_418)">
<path fill-rule="evenodd" clip-rule="evenodd" d="M143.528 14.6307C143.528 16.4349 143.528 18.1983 143.528 19.9813C142.806 19.9813 142.113 19.9813 141.365 19.9813C141.365 18.1905 141.365 16.4271 141.365 14.6288C140.236 14.6288 139.139 14.6288 138.02 14.6288C138.02 13.9194 138.02 13.2449 138.02 12.5478C141.004 12.5478 143.976 12.5478 146.966 12.5478C146.966 13.2408 146.966 13.9153 146.966 14.6307C145.817 14.6307 144.687 14.6307 143.528 14.6307ZM134.791 20.101C133.33 20.2797 131.869 20.3057 130.432 19.9256C129.385 19.6483 128.663 19.0359 128.527 17.8857C128.513 17.7679 128.514 17.6479 128.507 17.4952C128.632 17.4862 128.736 17.4729 128.841 17.4725C129.332 17.4703 129.824 17.4799 130.315 17.4677C130.54 17.4621 130.666 17.5052 130.715 17.7653C130.779 18.1043 131.078 18.2477 131.376 18.2667C132.256 18.3228 133.138 18.3544 134.02 18.3614C134.32 18.3636 134.625 18.2808 134.92 18.2064C135.157 18.147 135.33 17.9931 135.328 17.7178C135.326 17.4286 135.149 17.2573 134.892 17.2202C134.332 17.1395 133.767 17.0879 133.204 17.0355C132.367 16.9578 131.53 16.8969 130.694 16.8136C130.479 16.7921 130.266 16.7226 130.058 16.6594C129.081 16.3625 128.622 15.8203 128.579 14.9247C128.529 13.8655 128.949 13.0955 129.903 12.7782C130.6 12.5466 131.343 12.4114 132.075 12.3452C133.33 12.2319 134.588 12.2705 135.804 12.6752C136.716 12.9792 137.28 13.5846 137.396 14.5672C137.41 14.6857 137.41 14.8061 137.419 14.9648C136.691 14.9648 136.006 14.9648 135.288 14.9648C135.222 14.3498 134.752 14.2156 134.256 14.2004C133.363 14.1729 132.468 14.1885 131.575 14.2067C131.385 14.2108 131.169 14.2617 131.017 14.3669C130.886 14.4572 130.758 14.6549 130.758 14.8054C130.758 14.9365 130.913 15.1339 131.044 15.1848C131.304 15.2851 131.593 15.3305 131.873 15.3531C132.918 15.4375 133.966 15.4862 135.009 15.5854C135.406 15.6229 135.802 15.7363 136.185 15.8574C136.931 16.0934 137.389 16.6022 137.471 17.3989C137.557 18.2347 137.374 18.9764 136.639 19.4852C136.083 19.8695 135.445 20.0211 134.791 20.101ZM125.289 12.547C125.998 12.547 126.69 12.547 127.402 12.547C127.402 15.0313 127.402 17.497 127.402 19.9821C126.694 19.9821 126.001 19.9821 125.289 19.9821C125.289 17.5 125.289 15.0347 125.289 12.547ZM116.659 12.5507C117.364 12.5507 118.064 12.5507 118.794 12.5507C118.794 14.3553 118.794 16.1399 118.794 17.9567C120.641 17.9567 122.458 17.9567 124.302 17.9567C124.302 18.6487 124.302 19.3087 124.302 19.985C121.751 19.985 119.214 19.985 116.659 19.985C116.659 17.5052 116.659 15.041 116.659 12.5507ZM113.673 19.9928C113.61 19.9917 113.529 19.9085 113.488 19.8431C113.391 19.6848 113.283 19.5231 113.233 19.3473C113.086 18.8293 112.747 18.7334 112.251 18.7509C111.161 18.7895 110.068 18.768 108.977 18.7587C108.774 18.7568 108.664 18.8196 108.574 19.0054C108.414 19.3395 108.296 19.7829 108.022 19.9479C107.747 20.1136 107.303 19.9977 106.933 20.0003C106.552 20.0036 106.172 20.001 105.736 20.001C105.801 19.8561 105.845 19.7491 105.896 19.6465C107.036 17.3733 108.181 15.103 109.312 12.8257C109.427 12.5946 109.558 12.5125 109.812 12.5188C110.51 12.537 111.209 12.5154 111.907 12.5344C112.028 12.5377 112.203 12.6325 112.255 12.7354C113.446 15.08 114.625 17.432 115.805 19.7829C115.833 19.839 115.85 19.9003 115.888 19.9995C115.127 19.9995 114.4 20.0032 113.673 19.9928ZM110.811 14.6634C110.414 15.4297 110.054 16.1265 109.673 16.8645C110.462 16.8645 111.175 16.8645 111.962 16.8645C111.57 16.1153 111.208 15.423 110.811 14.6634ZM97.6075 12.5455C98.311 12.5455 99.0044 12.5455 99.7269 12.5455C99.7269 14.3401 99.7269 16.1257 99.7269 17.9526C101.581 17.9526 103.408 17.9526 105.257 17.9526C105.257 18.6468 105.257 19.3005 105.257 19.991C102.699 19.991 100.167 19.991 97.6075 19.991C97.6075 17.5123 97.6075 15.0391 97.6075 12.5455ZM94.1354 18.0898C93.0864 18.1942 92.0228 18.1574 90.9655 18.1823C90.815 18.186 90.6641 18.183 90.4683 18.183C90.4683 18.8207 90.4683 19.4001 90.4683 20.0084C89.7518 20.0084 89.0606 20.0084 88.34 20.0084C88.34 17.5294 88.34 15.0477 88.34 12.5433C88.4533 12.537 88.5593 12.5258 88.6652 12.5258C90.1163 12.5247 91.5679 12.5154 93.0191 12.531C93.4747 12.5362 93.9366 12.5734 94.3841 12.6593C96.1753 13.0015 96.7178 14.3093 96.5488 15.7943C96.3953 17.1406 95.5785 17.9463 94.1354 18.0898ZM94.0615 14.643C93.9017 14.5397 93.6992 14.4508 93.5148 14.4475C92.5141 14.4285 91.5125 14.4382 90.4887 14.4382C90.4887 15.0499 90.4887 15.6571 90.4887 16.2592C91.5311 16.2592 92.5535 16.2662 93.5758 16.2521C93.7296 16.2499 93.8965 16.1733 94.0332 16.0908C94.5457 15.7809 94.5643 14.9693 94.0615 14.643ZM85.2128 19.9895C85.1028 19.9858 84.9861 19.8739 84.8913 19.7899C83.3725 18.4495 81.857 17.1053 80.3405 15.7623C80.2921 15.7196 80.2409 15.6798 80.1338 15.591C80.1338 17.0812 80.1338 18.5175 80.1338 19.9772C79.3913 19.9772 78.6997 19.9772 77.9821 19.9772C77.9821 17.513 77.9821 15.048 77.9821 12.5351C78.5608 12.5351 79.1446 12.527 79.728 12.5437C79.8172 12.5463 79.909 12.6559 79.99 12.7273C81.4854 14.0443 82.9793 15.3635 84.4736 16.6813C84.5535 16.7519 84.6375 16.8177 84.7851 16.94C84.7851 15.4286 84.7851 14.0038 84.7851 12.5522C85.5071 12.5522 86.2073 12.5522 86.9252 12.5522C86.9252 15.0347 86.9252 17.5 86.9252 19.9992C86.3422 19.9992 85.7769 20.0099 85.2128 19.9895ZM73.5137 20.1013C72.3621 20.3113 71.2056 20.2812 70.0785 19.9278C68.6199 19.4703 67.7231 18.3072 67.686 16.7761C67.6533 15.4368 67.6752 14.0959 67.6744 12.7559C67.6744 12.7035 67.6886 12.6514 67.7012 12.5623C68.3627 12.5623 69.0149 12.5552 69.6663 12.5749C69.7239 12.5768 69.8224 12.7566 69.8235 12.8547C69.8347 13.964 69.8306 15.0737 69.831 16.1833C69.831 16.3149 69.8291 16.4468 69.8339 16.5787C69.8592 17.2852 70.1918 17.7653 70.8637 17.9864C71.7285 18.2707 72.6074 18.27 73.4718 17.9835C74.147 17.7594 74.4904 17.2655 74.4963 16.5379C74.5064 15.3517 74.5 14.1654 74.5004 12.9788C74.5004 12.8588 74.5004 12.7384 74.5004 12.5886C75.2195 12.5886 75.92 12.5886 76.658 12.5886C76.658 12.7202 76.658 12.838 76.658 12.9554C76.658 14.0647 76.6588 15.1744 76.658 16.284C76.6566 18.4744 75.6543 19.7108 73.5137 20.1013ZM59.6779 19.985C57.4244 19.4257 56.644 17.7627 56.8402 15.7738C57.0018 14.1316 57.9253 13.103 59.4884 12.6715C61.073 12.2341 62.6654 12.2471 64.2366 12.7455C65.2452 13.0654 65.9966 13.6972 66.3864 14.7143C66.4098 14.7756 66.4306 14.8381 66.4488 14.9012C66.4604 14.9425 66.4648 14.9856 66.4823 15.0837C65.6941 15.0837 64.9423 15.0852 64.1909 15.08C64.1336 15.0796 64.0601 15.0447 64.0218 15.0012C63.5743 14.4921 62.9693 14.3564 62.342 14.2955C61.6207 14.2256 60.8998 14.2427 60.2026 14.4709C59.3631 14.7455 58.9737 15.3253 58.9692 16.2755C58.9644 17.2566 59.3375 17.8482 60.1926 18.1147C61.1982 18.4283 62.2172 18.4279 63.2243 18.1087C63.6847 17.963 64.0656 17.7007 64.2845 17.1875C63.3491 17.1875 62.4413 17.1875 61.5089 17.1875C61.5089 16.6189 61.5089 16.0871 61.5089 15.5207C61.6263 15.5152 61.7419 15.5051 61.8571 15.5048C63.2986 15.5036 64.7401 15.504 66.1816 15.504C66.6194 15.5044 66.6194 15.5048 66.6503 15.9593C66.7952 18.0883 65.739 19.5361 63.671 20.0099C62.3413 20.3147 61.0001 20.3132 59.6779 19.985ZM53.7089 17.4517C53.6583 17.5182 53.6167 17.5988 53.5851 17.6839H51.2212C51.1109 17.4045 50.944 17.1403 50.7274 16.8772C50.0354 16.0365 49.3713 15.1725 48.7102 14.3066H51.1778C51.5825 14.8213 51.9905 15.342 52.4075 15.8723C52.5097 15.7549 52.6022 15.6564 52.6854 15.5508C53.4265 14.6147 54.16 13.6723 54.9122 12.7455C55.0055 12.6306 55.1946 12.5407 55.3429 12.5348C55.9531 12.5117 56.5648 12.5244 57.1761 12.5262C57.2583 12.5266 57.3404 12.5418 57.4664 12.5545C57.3757 12.683 57.3118 12.78 57.2412 12.8718C56.062 14.397 54.8776 15.9184 53.7089 17.4517ZM45.6358 15.6783C44.5228 16.8552 43.4792 17.9582 42.4101 19.0887C41.3409 17.9634 40.29 16.8567 39.1766 15.6843C39.1766 17.1678 39.1766 18.5647 39.1766 19.9798C38.4438 19.9798 37.7503 19.9798 37.0342 19.9798C37.0342 17.5089 37.0342 15.0436 37.0342 12.5296C37.6054 12.5296 38.1788 12.518 38.7507 12.5403C38.8551 12.5444 38.9663 12.6756 39.0543 12.7674C40.093 13.8507 41.1284 14.9369 42.1611 16.0261C42.235 16.1042 42.2796 16.2101 42.3376 16.3034C42.3841 16.3023 42.4302 16.3015 42.4762 16.3004C42.5506 16.1926 42.613 16.0726 42.7018 15.9786C43.7178 14.9038 44.742 13.8369 45.7525 12.757C45.5845 12.5794 46.0862 12.5106 46.3229 12.5184C46.7997 12.5336 47.2772 12.5229 47.7745 12.5229C47.7745 15.0287 47.7745 17.494 47.7745 19.9795C47.068 19.9795 46.3753 19.9795 45.6358 19.9795C45.6358 18.568 45.6358 17.1711 45.6358 15.6783ZM51.3495 18.1567H53.5134C53.4967 18.755 53.5078 19.3551 53.5078 19.9765C52.7899 19.9765 52.0975 19.9765 51.3502 19.9765C51.3502 19.5844 51.3127 19.1797 51.358 18.7847C51.3836 18.5621 51.3796 18.3544 51.3495 18.1567Z" fill="white"/>
</g>
<g clip-path="url(#clip1_100_418)">
<path fill-rule="evenodd" clip-rule="evenodd" d="M30.5823 22.1708C29.7807 24.0659 28.6334 25.7677 27.1721 27.2291C25.7108 28.6904 24.0089 29.8377 22.1139 30.6394C20.1517 31.4692 18.0676 31.8901 15.9193 31.8901C13.7712 31.8901 11.6871 31.4692 9.72495 30.6394C7.82991 29.8377 6.12817 28.6904 4.66672 27.2291C3.20539 25.7677 2.05807 24.0659 1.25655 22.1708C0.426543 20.2086 0.0057373 18.1245 0.0057373 15.9763C0.0057373 13.8282 0.426543 11.7441 1.25655 9.78192C2.05807 7.88689 3.20539 6.18515 4.66672 4.7237C6.12817 3.26248 7.82991 2.11505 9.72495 1.31353C11.6871 0.483637 13.7712 0.0627136 15.9193 0.0627136C18.0676 0.0627136 20.1517 0.483637 22.1139 1.31353C24.0089 2.11505 25.7108 3.26248 27.1721 4.7237C28.6334 6.18515 29.7807 7.88689 30.5823 9.78192C31.4123 11.7441 31.8331 13.8282 31.8331 15.9763C31.8331 18.1245 31.4123 20.2086 30.5823 22.1708ZM15.9193 0.912648C7.61318 0.912648 0.855671 7.67016 0.855671 15.9763C0.855671 24.2826 7.61318 31.0402 15.9193 31.0402C24.2256 31.0402 30.9831 24.2826 30.9831 15.9763C30.9831 7.67016 24.2256 0.912648 15.9193 0.912648ZM25.781 20.2244L24.6331 21.3837C23.5669 22.4606 21.8615 22.4843 20.8241 21.4365C19.7867 20.3887 19.8101 18.6663 20.8763 17.5893L17.3282 21.173C16.262 22.2498 14.5567 22.2734 13.5192 21.2257C12.4819 20.1778 12.5052 18.4554 13.5714 17.3786L9.81462 21.173C8.74842 22.2498 7.04304 22.2734 6.00568 21.2257C4.96832 20.1778 4.99164 18.4554 6.05784 17.3786L14.5106 8.84115C15.5768 7.76428 17.2822 7.74072 18.3196 8.78852C19.3571 9.83631 19.3336 11.5587 18.2674 12.6355C19.3336 11.5587 21.039 11.5351 22.0764 12.5829C23.1138 13.6307 23.0904 15.3531 22.0242 16.43C23.0904 15.3531 24.7958 15.3295 25.8331 16.3772C26.8706 17.4251 26.8472 19.1475 25.781 20.2244Z" fill="white"/>
</g>
<defs>
<clipPath id="clip0_100_418">
<rect width="110" height="8.54732" fill="white" transform="translate(37 12)"/>
</clipPath>
<clipPath id="clip1_100_418">
<rect width="31.8828" height="32" fill="white"/>
</clipPath>
</defs>
</svg>
