<svg width="133" height="10" viewBox="0 0 133 10" fill="none" xmlns="http://www.w3.org/2000/svg">
<path d="M0.32 9C0.232 9 0.164 8.976 0.116 8.928C0.068 8.872 0.0440001 8.804 0.0440001 8.724V0.887999C0.0440001 0.799999 0.068 0.732 0.116 0.684C0.164 0.628 0.232 0.599999 0.32 0.599999H3.608C4.208 0.599999 4.696 0.7 5.072 0.9C5.456 1.092 5.736 1.356 5.912 1.692C6.096 2.028 6.188 2.404 6.188 2.82C6.188 3.148 6.132 3.432 6.02 3.672C5.916 3.904 5.784 4.096 5.624 4.248C5.464 4.392 5.308 4.504 5.156 4.584C5.468 4.736 5.744 4.984 5.984 5.328C6.232 5.672 6.356 6.088 6.356 6.576C6.356 7.016 6.256 7.42 6.056 7.788C5.856 8.156 5.556 8.452 5.156 8.676C4.764 8.892 4.276 9 3.692 9H0.32ZM1.22 8.028H3.536C4.056 8.028 4.456 7.888 4.736 7.608C5.016 7.328 5.156 6.984 5.156 6.576C5.156 6.152 5.016 5.804 4.736 5.532C4.456 5.252 4.056 5.112 3.536 5.112H1.22V8.028ZM1.22 4.152H3.428C3.94 4.152 4.328 4.036 4.592 3.804C4.856 3.564 4.988 3.24 4.988 2.832C4.988 2.424 4.856 2.112 4.592 1.896C4.328 1.68 3.94 1.572 3.428 1.572H1.22V4.152ZM10.3335 9C10.2535 9 10.1855 8.976 10.1295 8.928C10.0815 8.872 10.0575 8.804 10.0575 8.724V5.892L7.16553 0.995999C7.15753 0.972 7.14953 0.948 7.14153 0.924C7.13353 0.899999 7.12953 0.872 7.12953 0.84C7.12953 0.776 7.15353 0.72 7.20153 0.672C7.24953 0.624 7.30553 0.599999 7.36953 0.599999H7.99353C8.06553 0.599999 8.12953 0.619999 8.18553 0.659999C8.24153 0.691999 8.28153 0.74 8.30553 0.804L10.6455 4.692L12.9855 0.804C13.0255 0.74 13.0695 0.691999 13.1175 0.659999C13.1735 0.619999 13.2375 0.599999 13.3095 0.599999H13.9215C13.9935 0.599999 14.0535 0.624 14.1015 0.672C14.1495 0.72 14.1735 0.776 14.1735 0.84C14.1735 0.872 14.1695 0.899999 14.1615 0.924C14.1535 0.948 14.1415 0.972 14.1255 0.995999L11.2455 5.892V8.724C11.2455 8.804 11.2175 8.872 11.1615 8.928C11.1135 8.976 11.0455 9 10.9575 9H10.3335ZM18.4489 9C18.3609 9 18.2929 8.976 18.2449 8.928C18.1969 8.872 18.1729 8.804 18.1729 8.724V0.887999C18.1729 0.799999 18.1969 0.732 18.2449 0.684C18.2929 0.628 18.3609 0.599999 18.4489 0.599999H21.3769C22.2809 0.599999 22.9969 0.812 23.5249 1.236C24.0529 1.66 24.3169 2.288 24.3169 3.12C24.3169 3.736 24.1609 4.24 23.8489 4.632C23.5449 5.016 23.1289 5.284 22.6009 5.436L24.4489 8.628C24.4729 8.676 24.4849 8.72 24.4849 8.76C24.4849 8.824 24.4569 8.88 24.4009 8.928C24.3529 8.976 24.2969 9 24.2329 9H23.6569C23.5209 9 23.4209 8.964 23.3569 8.892C23.2929 8.82 23.2369 8.748 23.1889 8.676L21.4489 5.628H19.3489V8.724C19.3489 8.804 19.3209 8.872 19.2649 8.928C19.2169 8.976 19.1489 9 19.0609 9H18.4489ZM19.3489 4.608H21.3289C21.9289 4.608 22.3769 4.484 22.6729 4.236C22.9689 3.98 23.1169 3.604 23.1169 3.108C23.1169 2.62 22.9689 2.248 22.6729 1.992C22.3849 1.736 21.9369 1.608 21.3289 1.608H19.3489V4.608ZM26.3122 9C26.2242 9 26.1562 8.976 26.1082 8.928C26.0602 8.872 26.0362 8.804 26.0362 8.724V0.875999C26.0362 0.796 26.0602 0.732 26.1082 0.684C26.1562 0.628 26.2242 0.599999 26.3122 0.599999H26.9482C27.0282 0.599999 27.0922 0.628 27.1402 0.684C27.1962 0.732 27.2242 0.796 27.2242 0.875999V8.724C27.2242 8.804 27.1962 8.872 27.1402 8.928C27.0922 8.976 27.0282 9 26.9482 9H26.3122ZM32.0174 9.12C31.3214 9.12 30.7374 9.016 30.2654 8.808C29.7934 8.592 29.4294 8.316 29.1734 7.98C28.9254 7.636 28.7934 7.272 28.7774 6.888C28.7774 6.824 28.8014 6.768 28.8494 6.72C28.9054 6.664 28.9694 6.636 29.0414 6.636H29.6534C29.7494 6.636 29.8214 6.66 29.8694 6.708C29.9174 6.756 29.9494 6.812 29.9654 6.876C30.0054 7.068 30.1014 7.26 30.2534 7.452C30.4134 7.636 30.6334 7.792 30.9134 7.92C31.2014 8.04 31.5694 8.1 32.0174 8.1C32.7054 8.1 33.2094 7.98 33.5294 7.74C33.8574 7.492 34.0214 7.164 34.0214 6.756C34.0214 6.476 33.9334 6.252 33.7574 6.084C33.5894 5.908 33.3294 5.752 32.9774 5.616C32.6254 5.48 32.1694 5.332 31.6094 5.172C31.0254 5.004 30.5414 4.82 30.1574 4.62C29.7734 4.42 29.4854 4.172 29.2934 3.876C29.1094 3.58 29.0174 3.204 29.0174 2.748C29.0174 2.316 29.1334 1.932 29.3654 1.596C29.5974 1.252 29.9294 0.98 30.3614 0.779999C30.8014 0.579999 31.3334 0.48 31.9574 0.48C32.4534 0.48 32.8854 0.548 33.2534 0.684C33.6294 0.812 33.9414 0.987999 34.1894 1.212C34.4374 1.428 34.6254 1.664 34.7534 1.92C34.8814 2.168 34.9494 2.412 34.9574 2.652C34.9574 2.708 34.9374 2.764 34.8974 2.82C34.8574 2.868 34.7934 2.892 34.7054 2.892H34.0694C34.0134 2.892 33.9534 2.876 33.8894 2.844C33.8334 2.812 33.7894 2.752 33.7574 2.664C33.7094 2.336 33.5254 2.06 33.2054 1.836C32.8854 1.612 32.4694 1.5 31.9574 1.5C31.4374 1.5 31.0134 1.6 30.6854 1.8C30.3654 2 30.2054 2.312 30.2054 2.736C30.2054 3.008 30.2814 3.236 30.4334 3.42C30.5854 3.596 30.8254 3.752 31.1534 3.888C31.4814 4.024 31.9094 4.168 32.4374 4.32C33.0774 4.496 33.6014 4.684 34.0094 4.884C34.4174 5.076 34.7174 5.32 34.9094 5.616C35.1094 5.904 35.2094 6.276 35.2094 6.732C35.2094 7.236 35.0774 7.668 34.8134 8.028C34.5494 8.38 34.1774 8.652 33.6974 8.844C33.2254 9.028 32.6654 9.12 32.0174 9.12ZM37.0583 9C36.9703 9 36.9023 8.976 36.8543 8.928C36.8063 8.872 36.7823 8.804 36.7823 8.724V0.887999C36.7823 0.799999 36.8063 0.732 36.8543 0.684C36.9023 0.628 36.9703 0.599999 37.0583 0.599999H42.0143C42.1023 0.599999 42.1703 0.628 42.2183 0.684C42.2663 0.732 42.2903 0.799999 42.2903 0.887999V1.344C42.2903 1.432 42.2663 1.5 42.2183 1.548C42.1703 1.596 42.1023 1.62 42.0143 1.62H37.9343V4.248H41.7503C41.8383 4.248 41.9063 4.276 41.9543 4.332C42.0023 4.38 42.0263 4.448 42.0263 4.536V4.98C42.0263 5.06 42.0023 5.128 41.9543 5.184C41.9063 5.232 41.8383 5.256 41.7503 5.256H37.9343V7.98H42.1103C42.1983 7.98 42.2663 8.004 42.3143 8.052C42.3623 8.1 42.3863 8.168 42.3863 8.256V8.724C42.3863 8.804 42.3623 8.872 42.3143 8.928C42.2663 8.976 42.1983 9 42.1103 9H37.0583ZM46.9896 9.12C46.3096 9.12 45.7256 9.004 45.2376 8.772C44.7496 8.532 44.3736 8.168 44.1096 7.68C43.8456 7.184 43.6976 6.564 43.6656 5.82C43.6576 5.468 43.6536 5.132 43.6536 4.812C43.6536 4.484 43.6576 4.144 43.6656 3.792C43.6976 3.056 43.8496 2.444 44.1216 1.956C44.4016 1.46 44.7856 1.092 45.2736 0.852C45.7696 0.604 46.3416 0.48 46.9896 0.48C47.6456 0.48 48.2176 0.604 48.7056 0.852C49.2016 1.092 49.5896 1.46 49.8696 1.956C50.1496 2.444 50.3016 3.056 50.3256 3.792C50.3416 4.144 50.3496 4.484 50.3496 4.812C50.3496 5.132 50.3416 5.468 50.3256 5.82C50.3016 6.564 50.1536 7.184 49.8816 7.68C49.6176 8.168 49.2416 8.532 48.7536 8.772C48.2656 9.004 47.6776 9.12 46.9896 9.12ZM46.9896 8.1C47.6056 8.1 48.1056 7.916 48.4896 7.548C48.8816 7.18 49.0936 6.584 49.1256 5.76C49.1416 5.4 49.1496 5.08 49.1496 4.8C49.1496 4.512 49.1416 4.192 49.1256 3.84C49.1096 3.288 49.0056 2.84 48.8136 2.496C48.6296 2.152 48.3816 1.9 48.0696 1.74C47.7576 1.58 47.3976 1.5 46.9896 1.5C46.5976 1.5 46.2456 1.58 45.9336 1.74C45.6216 1.9 45.3696 2.152 45.1776 2.496C44.9936 2.84 44.8896 3.288 44.8656 3.84C44.8576 4.192 44.8536 4.512 44.8536 4.8C44.8536 5.08 44.8576 5.4 44.8656 5.76C44.8976 6.584 45.1096 7.18 45.5016 7.548C45.8936 7.916 46.3896 8.1 46.9896 8.1ZM52.3747 9C52.2867 9 52.2187 8.976 52.1707 8.928C52.1227 8.872 52.0987 8.804 52.0987 8.724V0.887999C52.0987 0.799999 52.1227 0.732 52.1707 0.684C52.2187 0.628 52.2867 0.599999 52.3747 0.599999H57.2707C57.3587 0.599999 57.4267 0.628 57.4747 0.684C57.5227 0.732 57.5467 0.799999 57.5467 0.887999V1.368C57.5467 1.456 57.5227 1.524 57.4747 1.572C57.4267 1.62 57.3587 1.644 57.2707 1.644H53.2627V4.44H57.0307C57.1187 4.44 57.1867 4.468 57.2347 4.524C57.2827 4.572 57.3067 4.64 57.3067 4.728V5.208C57.3067 5.288 57.2827 5.356 57.2347 5.412C57.1867 5.46 57.1187 5.484 57.0307 5.484H53.2627V8.724C53.2627 8.804 53.2347 8.872 53.1787 8.928C53.1307 8.976 53.0627 9 52.9747 9H52.3747ZM62.0959 9.12C61.3919 9.12 60.7919 8.988 60.2959 8.724C59.8079 8.46 59.4319 8.088 59.1679 7.608C58.9119 7.128 58.7679 6.564 58.7359 5.916C58.7279 5.564 58.7239 5.192 58.7239 4.8C58.7239 4.4 58.7279 4.02 58.7359 3.66C58.7679 3.012 58.9119 2.452 59.1679 1.98C59.4319 1.508 59.8119 1.14 60.3079 0.875999C60.8039 0.612 61.3999 0.48 62.0959 0.48C62.6639 0.48 63.1559 0.559999 63.5719 0.719999C63.9879 0.88 64.3279 1.084 64.5919 1.332C64.8639 1.572 65.0639 1.824 65.1919 2.088C65.3279 2.352 65.3999 2.584 65.4079 2.784C65.4159 2.856 65.3959 2.916 65.3479 2.964C65.2999 3.004 65.2359 3.024 65.1559 3.024H64.4479C64.3679 3.024 64.3079 3.008 64.2679 2.976C64.2359 2.944 64.2039 2.888 64.1719 2.808C64.0999 2.6 63.9799 2.396 63.8119 2.196C63.6519 1.996 63.4319 1.832 63.1519 1.704C62.8799 1.568 62.5279 1.5 62.0959 1.5C61.4639 1.5 60.9519 1.672 60.5599 2.016C60.1759 2.36 59.9679 2.928 59.9359 3.72C59.9119 4.432 59.9119 5.144 59.9359 5.856C59.9679 6.656 60.1799 7.232 60.5719 7.584C60.9639 7.928 61.4759 8.1 62.1079 8.1C62.5319 8.1 62.9079 8.024 63.2359 7.872C63.5719 7.712 63.8359 7.468 64.0279 7.14C64.2199 6.812 64.3159 6.396 64.3159 5.892V5.388H62.5159C62.4359 5.388 62.3679 5.364 62.3119 5.316C62.2639 5.26 62.2399 5.188 62.2399 5.1V4.716C62.2399 4.628 62.2639 4.56 62.3119 4.512C62.3679 4.456 62.4359 4.428 62.5159 4.428H65.2279C65.3159 4.428 65.3839 4.456 65.4319 4.512C65.4799 4.56 65.5039 4.628 65.5039 4.716V5.868C65.5039 6.524 65.3679 7.096 65.0959 7.584C64.8319 8.072 64.4439 8.452 63.9319 8.724C63.4199 8.988 62.8079 9.12 62.0959 9.12ZM70.3839 9.12C69.7119 9.12 69.1319 9 68.6439 8.76C68.1639 8.52 67.7919 8.156 67.5279 7.668C67.2719 7.172 67.1439 6.536 67.1439 5.76V0.887999C67.1439 0.799999 67.1679 0.732 67.2159 0.684C67.2639 0.628 67.3319 0.599999 67.4199 0.599999H68.0319C68.1199 0.599999 68.1879 0.628 68.2359 0.684C68.2919 0.732 68.3199 0.799999 68.3199 0.887999V5.784C68.3199 6.568 68.5039 7.148 68.8719 7.524C69.2399 7.9 69.7439 8.088 70.3839 8.088C71.0159 8.088 71.5159 7.9 71.8839 7.524C72.2599 7.148 72.4479 6.568 72.4479 5.784V0.887999C72.4479 0.799999 72.4719 0.732 72.5199 0.684C72.5759 0.628 72.6439 0.599999 72.7239 0.599999H73.3479C73.4279 0.599999 73.4919 0.628 73.5399 0.684C73.5959 0.732 73.6239 0.799999 73.6239 0.887999V5.76C73.6239 6.536 73.4919 7.172 73.2279 7.668C72.9719 8.156 72.6039 8.52 72.1239 8.76C71.6439 9 71.0639 9.12 70.3839 9.12ZM75.9059 9C75.8179 9 75.7499 8.976 75.7019 8.928C75.6539 8.872 75.6299 8.804 75.6299 8.724V0.887999C75.6299 0.799999 75.6539 0.732 75.7019 0.684C75.7499 0.628 75.8179 0.599999 75.9059 0.599999H76.4579C76.5539 0.599999 76.6259 0.624 76.6739 0.672C76.7219 0.712 76.7499 0.744 76.7579 0.767999L80.7419 6.888V0.887999C80.7419 0.799999 80.7659 0.732 80.8139 0.684C80.8619 0.628 80.9299 0.599999 81.0179 0.599999H81.5939C81.6819 0.599999 81.7499 0.628 81.7979 0.684C81.8539 0.732 81.8819 0.799999 81.8819 0.887999V8.712C81.8819 8.792 81.8539 8.86 81.7979 8.916C81.7499 8.972 81.6859 9 81.6059 9H81.0299C80.9419 9 80.8739 8.976 80.8259 8.928C80.7859 8.88 80.7579 8.848 80.7419 8.832L76.7699 2.772V8.724C76.7699 8.804 76.7419 8.872 76.6859 8.928C76.6379 8.976 76.5699 9 76.4819 9H75.9059ZM84.238 9C84.15 9 84.082 8.976 84.034 8.928C83.986 8.872 83.962 8.804 83.962 8.724V0.887999C83.962 0.799999 83.986 0.732 84.034 0.684C84.082 0.628 84.15 0.599999 84.238 0.599999H87.286C87.878 0.599999 88.39 0.695999 88.822 0.887999C89.262 1.08 89.602 1.368 89.842 1.752C90.082 2.128 90.202 2.6 90.202 3.168C90.202 3.736 90.082 4.208 89.842 4.584C89.602 4.96 89.262 5.244 88.822 5.436C88.39 5.628 87.878 5.724 87.286 5.724H85.162V8.724C85.162 8.804 85.134 8.872 85.078 8.928C85.03 8.976 84.962 9 84.874 9H84.238ZM85.15 4.716H87.226C87.818 4.716 88.262 4.584 88.558 4.32C88.854 4.056 89.002 3.672 89.002 3.168C89.002 2.672 88.858 2.288 88.57 2.016C88.282 1.744 87.834 1.608 87.226 1.608H85.15V4.716ZM91.9372 9C91.8492 9 91.7812 8.976 91.7332 8.928C91.6852 8.872 91.6612 8.804 91.6612 8.724V0.875999C91.6612 0.796 91.6852 0.732 91.7332 0.684C91.7812 0.628 91.8492 0.599999 91.9372 0.599999H92.5732C92.6532 0.599999 92.7172 0.628 92.7652 0.684C92.8132 0.732 92.8372 0.796 92.8372 0.875999V7.956H96.8332C96.9212 7.956 96.9892 7.984 97.0372 8.04C97.0852 8.088 97.1092 8.156 97.1092 8.244V8.724C97.1092 8.804 97.0852 8.872 97.0372 8.928C96.9892 8.976 96.9212 9 96.8332 9H91.9372ZM97.8589 9C97.7949 9 97.7389 8.976 97.6909 8.928C97.6429 8.88 97.6189 8.824 97.6189 8.76C97.6189 8.72 97.6229 8.676 97.6309 8.628L100.607 0.864C100.639 0.784 100.683 0.72 100.739 0.672C100.795 0.624 100.879 0.599999 100.991 0.599999H101.807C101.911 0.599999 101.991 0.624 102.047 0.672C102.111 0.72 102.159 0.784 102.191 0.864L105.155 8.628C105.171 8.676 105.179 8.72 105.179 8.76C105.179 8.824 105.155 8.88 105.107 8.928C105.059 8.976 105.003 9 104.939 9H104.327C104.231 9 104.159 8.976 104.111 8.928C104.071 8.88 104.043 8.836 104.027 8.796L103.367 7.092H99.4309L98.7709 8.796C98.7629 8.836 98.7349 8.88 98.6869 8.928C98.6389 8.976 98.5669 9 98.4709 9H97.8589ZM99.7789 6.06H103.019L101.399 1.8L99.7789 6.06ZM106.498 9C106.418 9 106.35 8.976 106.294 8.928C106.246 8.872 106.222 8.804 106.222 8.724V7.86C106.222 7.78 106.246 7.716 106.294 7.668C106.35 7.612 106.418 7.584 106.498 7.584H107.362C107.442 7.584 107.506 7.612 107.554 7.668C107.61 7.716 107.638 7.78 107.638 7.86V8.724C107.638 8.804 107.61 8.872 107.554 8.928C107.506 8.976 107.442 9 107.362 9H106.498ZM112.322 9.12C111.586 9.12 110.974 8.984 110.486 8.712C110.006 8.44 109.642 8.06 109.394 7.572C109.146 7.084 109.01 6.516 108.986 5.868C108.978 5.54 108.974 5.188 108.974 4.812C108.974 4.436 108.978 4.076 108.986 3.732C109.01 3.084 109.146 2.516 109.394 2.028C109.642 1.54 110.006 1.16 110.486 0.887999C110.974 0.615999 111.586 0.48 112.322 0.48C112.874 0.48 113.358 0.556 113.774 0.707999C114.19 0.859999 114.534 1.064 114.806 1.32C115.086 1.576 115.298 1.864 115.442 2.184C115.586 2.496 115.666 2.82 115.682 3.156C115.69 3.228 115.666 3.288 115.61 3.336C115.562 3.384 115.502 3.408 115.43 3.408H114.77C114.698 3.408 114.634 3.388 114.578 3.348C114.53 3.308 114.494 3.236 114.47 3.132C114.334 2.508 114.078 2.08 113.702 1.848C113.334 1.616 112.87 1.5 112.31 1.5C111.67 1.5 111.162 1.684 110.786 2.052C110.41 2.412 110.206 2.992 110.174 3.792C110.15 4.448 110.15 5.12 110.174 5.808C110.206 6.608 110.41 7.192 110.786 7.56C111.162 7.92 111.67 8.1 112.31 8.1C112.87 8.1 113.334 7.984 113.702 7.752C114.078 7.52 114.334 7.092 114.47 6.468C114.494 6.364 114.53 6.292 114.578 6.252C114.634 6.212 114.698 6.192 114.77 6.192H115.43C115.502 6.192 115.562 6.216 115.61 6.264C115.666 6.312 115.69 6.372 115.682 6.444C115.666 6.78 115.586 7.108 115.442 7.428C115.298 7.74 115.086 8.024 114.806 8.28C114.534 8.536 114.19 8.74 113.774 8.892C113.358 9.044 112.874 9.12 112.322 9.12ZM120.302 9.12C119.622 9.12 119.038 9.004 118.55 8.772C118.062 8.532 117.686 8.168 117.422 7.68C117.158 7.184 117.01 6.564 116.978 5.82C116.97 5.468 116.966 5.132 116.966 4.812C116.966 4.484 116.97 4.144 116.978 3.792C117.01 3.056 117.162 2.444 117.434 1.956C117.714 1.46 118.098 1.092 118.586 0.852C119.082 0.604 119.654 0.48 120.302 0.48C120.958 0.48 121.53 0.604 122.018 0.852C122.514 1.092 122.902 1.46 123.182 1.956C123.462 2.444 123.614 3.056 123.638 3.792C123.654 4.144 123.662 4.484 123.662 4.812C123.662 5.132 123.654 5.468 123.638 5.82C123.614 6.564 123.466 7.184 123.194 7.68C122.93 8.168 122.554 8.532 122.066 8.772C121.578 9.004 120.99 9.12 120.302 9.12ZM120.302 8.1C120.918 8.1 121.418 7.916 121.802 7.548C122.194 7.18 122.406 6.584 122.438 5.76C122.454 5.4 122.462 5.08 122.462 4.8C122.462 4.512 122.454 4.192 122.438 3.84C122.422 3.288 122.318 2.84 122.126 2.496C121.942 2.152 121.694 1.9 121.382 1.74C121.07 1.58 120.71 1.5 120.302 1.5C119.91 1.5 119.558 1.58 119.246 1.74C118.934 1.9 118.682 2.152 118.49 2.496C118.306 2.84 118.202 3.288 118.178 3.84C118.17 4.192 118.166 4.512 118.166 4.8C118.166 5.08 118.17 5.4 118.178 5.76C118.21 6.584 118.422 7.18 118.814 7.548C119.206 7.916 119.702 8.1 120.302 8.1ZM125.687 9C125.607 9 125.539 8.976 125.483 8.928C125.435 8.872 125.411 8.804 125.411 8.724V0.887999C125.411 0.799999 125.435 0.732 125.483 0.684C125.539 0.628 125.607 0.599999 125.687 0.599999H126.287C126.383 0.599999 126.455 0.624 126.503 0.672C126.551 0.72 126.579 0.76 126.587 0.792L129.131 5.64L131.687 0.792C131.703 0.76 131.731 0.72 131.771 0.672C131.819 0.624 131.891 0.599999 131.987 0.599999H132.575C132.663 0.599999 132.731 0.628 132.779 0.684C132.835 0.732 132.863 0.799999 132.863 0.887999V8.724C132.863 8.804 132.835 8.872 132.779 8.928C132.731 8.976 132.663 9 132.575 9H131.987C131.907 9 131.839 8.976 131.783 8.928C131.735 8.872 131.711 8.804 131.711 8.724V2.82L129.707 6.732C129.675 6.812 129.627 6.876 129.563 6.924C129.499 6.964 129.419 6.984 129.323 6.984H128.951C128.847 6.984 128.763 6.964 128.699 6.924C128.643 6.876 128.595 6.812 128.555 6.732L126.551 2.82V8.724C126.551 8.804 126.523 8.872 126.467 8.928C126.419 8.976 126.355 9 126.275 9H125.687Z" fill="white"/>
</svg>
