<svg width="293" height="8" viewBox="0 0 293 8" fill="none" xmlns="http://www.w3.org/2000/svg">
<g clip-path="url(#clip0_141_237)">
<path fill-rule="evenodd" clip-rule="evenodd" d="M291.754 7.09904C291.709 7.09904 291.672 7.08604 291.643 7.06204C291.615 7.03804 291.592 7.00704 291.576 6.96904L290.778 4.99104H287.434L286.636 6.96904C286.623 7.00404 286.601 7.03404 286.569 7.06004C286.537 7.08604 286.498 7.09904 286.453 7.09904H286.078L288.863 0.29204H289.349L292.134 7.09904H291.754ZM289.243 1.18704C289.195 1.07504 289.148 0.94004 289.104 0.78304C289.084 0.86004 289.063 0.93304 289.041 1.00204C289.019 1.07104 288.995 1.13404 288.969 1.19204L287.584 4.62604H290.628L289.243 1.18704ZM281.321 0.29204H281.816V6.68004H285.039V7.09904H281.321V0.29204ZM278.516 3.78204C278.308 3.96304 278.055 4.10404 277.756 4.20504C277.458 4.30604 277.123 4.35704 276.751 4.35704H275.486V7.09904H274.99V0.29204H276.751C277.549 0.29204 278.152 0.46704 278.557 0.81604C278.963 1.16604 279.166 1.66404 279.166 2.31204C279.166 2.61104 279.11 2.88504 278.997 3.13504C278.885 3.38504 278.725 3.60104 278.516 3.78204ZM278.189 1.10504C277.869 0.82304 277.389 0.68204 276.751 0.68204H275.486V3.96204H276.751C277.049 3.96204 277.317 3.92104 277.554 3.83704C277.792 3.75404 277.993 3.63804 278.158 3.49104C278.323 3.34404 278.45 3.16904 278.538 2.96904C278.626 2.76904 278.67 2.55004 278.67 2.31204C278.67 1.79004 278.51 1.38704 278.189 1.10504ZM271.876 7.07704C271.849 7.06204 271.822 7.03804 271.796 7.00204L267.376 1.09504C267.385 1.19204 267.39 1.28304 267.39 1.37004V7.09904H266.957V0.29204H267.203C267.248 0.29204 267.282 0.29804 267.306 0.30904C267.33 0.32004 267.357 0.34504 267.385 0.38404L271.796 6.27604C271.787 6.18004 271.782 6.08804 271.782 6.00204V0.29204H272.21V7.09904H271.979C271.938 7.09904 271.903 7.09104 271.876 7.07704ZM263.573 6.40304C263.351 6.64604 263.08 6.83604 262.76 6.97404C262.441 7.11104 262.083 7.18004 261.685 7.18004C261.288 7.18004 260.929 7.11104 260.61 6.97404C260.291 6.83604 260.02 6.64604 259.797 6.40304C259.575 6.16104 259.404 5.87704 259.285 5.55204C259.166 5.22704 259.107 4.87604 259.107 4.50104V0.29204H259.603V4.49604C259.603 4.81404 259.65 5.10904 259.744 5.38404C259.839 5.65804 259.975 5.89604 260.153 6.09804C260.331 6.30004 260.549 6.45904 260.808 6.57404C261.066 6.69004 261.358 6.74704 261.685 6.74704C262.012 6.74704 262.305 6.69004 262.563 6.57704C262.821 6.46304 263.04 6.30504 263.22 6.10304C263.399 5.90104 263.537 5.66304 263.631 5.38804C263.726 5.11404 263.773 4.81804 263.773 4.50104V0.29204H264.264V4.50104C264.264 4.87604 264.204 5.22704 264.086 5.55204C263.967 5.87704 263.796 6.16104 263.573 6.40304ZM254.403 7.17604C253.864 7.17604 253.38 7.09304 252.95 6.92804C252.52 6.76304 252.154 6.52904 251.851 6.22504C251.548 5.92204 251.315 5.55604 251.153 5.12604C250.991 4.69704 250.911 4.21904 250.911 3.69304C250.911 3.16704 250.99 2.69004 251.149 2.26204C251.307 1.83404 251.535 1.46804 251.832 1.16504C252.128 0.86204 252.487 0.62804 252.907 0.46304C253.327 0.29804 253.8 0.21504 254.326 0.21504C254.586 0.21504 254.825 0.23304 255.045 0.26804C255.265 0.30304 255.469 0.35504 255.658 0.42404C255.847 0.49304 256.024 0.57804 256.187 0.67904C256.351 0.78004 256.508 0.89604 256.659 1.02804L256.524 1.24004C256.479 1.31704 256.412 1.33404 256.322 1.29304C256.274 1.27304 256.205 1.22804 256.115 1.15804C256.025 1.08804 255.902 1.01404 255.745 0.93704C255.588 0.86004 255.393 0.79104 255.16 0.73004C254.928 0.66904 254.645 0.63804 254.311 0.63804C253.869 0.63804 253.469 0.70904 253.111 0.85004C252.754 0.99104 252.449 1.19304 252.197 1.45604C251.945 1.71904 251.751 2.04004 251.615 2.41804C251.479 2.79704 251.411 3.22204 251.411 3.69304C251.411 4.17104 251.479 4.60104 251.615 4.98204C251.751 5.36404 251.949 5.68804 252.207 5.95404C252.465 6.22004 252.779 6.42404 253.147 6.56504C253.516 6.70604 253.931 6.77604 254.393 6.77604C254.595 6.77604 254.782 6.76304 254.954 6.73804C255.125 6.71204 255.289 6.67604 255.444 6.63004C255.6 6.58304 255.75 6.52504 255.896 6.45604C256.042 6.38704 256.19 6.31004 256.341 6.22304V4.39004H255.038C255.002 4.39004 254.973 4.37904 254.949 4.35704C254.925 4.33404 254.913 4.30904 254.913 4.28004V4.01004H256.789V6.43004C256.449 6.67004 256.086 6.85504 255.701 6.98304C255.317 7.11104 254.884 7.17604 254.403 7.17604ZM245.716 3.56304H248.818V3.97204H245.716V7.09904H245.22V0.29204H249.299V0.70104H245.716V3.56304ZM241.983 6.22104C241.697 6.52404 241.355 6.75804 240.956 6.92304C240.557 7.08804 240.116 7.17104 239.635 7.17104C239.154 7.17104 238.715 7.08804 238.317 6.92304C237.92 6.75804 237.578 6.52404 237.293 6.22104C237.007 5.91804 236.786 5.55204 236.629 5.12404C236.472 4.69604 236.393 4.21904 236.393 3.69304C236.393 3.17004 236.472 2.69504 236.629 2.26704C236.786 1.83804 237.007 1.47304 237.293 1.17004C237.578 0.86704 237.92 0.63204 238.317 0.46504C238.715 0.29804 239.154 0.21504 239.635 0.21504C240.116 0.21504 240.557 0.29804 240.956 0.46304C241.355 0.62804 241.697 0.86304 241.983 1.16804C242.268 1.47204 242.489 1.83804 242.647 2.26704C242.804 2.69504 242.882 3.17004 242.882 3.69304C242.882 4.21904 242.804 4.69604 242.647 5.12404C242.489 5.55204 242.268 5.91804 241.983 6.22104ZM242.175 2.41304C242.044 2.03504 241.858 1.71404 241.617 1.45104C241.377 1.18804 241.088 0.98704 240.751 0.84804C240.415 0.70804 240.043 0.63804 239.635 0.63804C239.231 0.63804 238.861 0.70804 238.524 0.84804C238.188 0.98704 237.898 1.18804 237.656 1.45104C237.414 1.71404 237.226 2.03504 237.093 2.41304C236.96 2.79204 236.894 3.21804 236.894 3.69304C236.894 4.17104 236.96 4.59804 237.093 4.97504C237.226 5.35204 237.414 5.67204 237.656 5.93404C237.898 6.19704 238.188 6.39804 238.524 6.53604C238.861 6.67404 239.231 6.74204 239.635 6.74204C240.043 6.74204 240.415 6.67404 240.751 6.53604C241.088 6.39804 241.377 6.19704 241.617 5.93404C241.858 5.67204 242.044 5.35204 242.175 4.97504C242.307 4.59804 242.372 4.17104 242.372 3.69304C242.372 3.21804 242.307 2.79204 242.175 2.41304ZM234.729 6.69004L234.719 7.09904H230.64V0.29204H234.719V0.70104H231.136V3.45204H234.118V3.85204H231.136V6.69004H234.729ZM227.764 6.57404C227.578 6.76004 227.35 6.90704 227.081 7.01404C226.811 7.12204 226.504 7.17604 226.157 7.17604C225.708 7.17604 225.322 7.09604 224.998 6.93704C224.674 6.77904 224.39 6.56104 224.147 6.28604L224.281 6.07404C224.32 6.02604 224.365 6.00204 224.416 6.00204C224.445 6.00204 224.482 6.02104 224.527 6.05904C224.571 6.09804 224.626 6.14504 224.69 6.20104C224.754 6.25804 224.831 6.31904 224.921 6.38404C225.011 6.45004 225.115 6.51104 225.234 6.56704C225.352 6.62304 225.489 6.67004 225.642 6.70904C225.796 6.74704 225.971 6.76604 226.167 6.76604C226.436 6.76604 226.677 6.72604 226.888 6.64404C227.1 6.56204 227.279 6.45104 227.425 6.31004C227.571 6.16804 227.682 6.00104 227.759 5.80704C227.836 5.61304 227.874 5.40504 227.874 5.18404C227.874 4.94404 227.826 4.74604 227.728 4.59004C227.63 4.43404 227.501 4.30404 227.341 4.20004C227.18 4.09604 226.998 4.00904 226.795 3.93804C226.591 3.86804 226.382 3.79904 226.167 3.73104C225.952 3.66404 225.743 3.58904 225.539 3.50504C225.335 3.42204 225.153 3.31504 224.993 3.18504C224.833 3.05604 224.704 2.89404 224.606 2.70004C224.508 2.50504 224.459 2.26304 224.459 1.97104C224.459 1.74304 224.502 1.52304 224.589 1.31204C224.676 1.10004 224.802 0.91304 224.969 0.75104C225.136 0.58904 225.342 0.46004 225.587 0.36204C225.833 0.26404 226.112 0.21504 226.427 0.21504C226.779 0.21504 227.096 0.27104 227.377 0.38404C227.657 0.49604 227.913 0.66704 228.144 0.89804L228.028 1.11904C227.1 1.17404 227.958 1.20104 227.903 1.20104C227.862 1.20104 227.808 1.17204 227.742 1.11204C227.676 1.05304 227.587 0.98704 227.475 0.91504C227.363 0.84304 227.223 0.77604 227.054 0.71504C226.886 0.65404 226.678 0.62404 226.431 0.62404C226.184 0.62404 225.967 0.65904 225.78 0.73004C225.592 0.80004 225.435 0.89604 225.308 1.01804C225.181 1.14004 225.085 1.28104 225.02 1.44204C224.954 1.60204 224.921 1.77004 224.921 1.94704C224.921 2.17804 224.97 2.36804 225.068 2.51904C225.166 2.67004 225.295 2.79804 225.455 2.90404C225.615 3.01004 225.797 3.09904 226.001 3.17104C226.204 3.24304 226.414 3.31504 226.629 3.38504C226.843 3.45604 227.053 3.53304 227.256 3.61804C227.46 3.70304 227.642 3.81004 227.802 3.93804C227.963 4.06604 228.092 4.22404 228.19 4.41204C228.287 4.60004 228.336 4.83304 228.336 5.11204C228.336 5.39704 228.287 5.66604 228.19 5.91804C228.092 6.16904 227.95 6.38804 227.764 6.57404ZM221.448 0.29204H221.943V7.09904H221.448V0.29204ZM219.534 7.09904H219.11C219.056 7.09904 219.01 7.09004 218.973 7.07204C218.936 7.05404 218.902 7.02204 218.87 6.97404L216.686 4.21204C216.66 4.17704 216.634 4.14704 216.607 4.12104C216.579 4.09504 216.549 4.07504 216.515 4.06104C216.481 4.04604 216.441 4.03604 216.395 4.03004C216.348 4.02304 216.291 4.02004 216.224 4.02004H215.334V7.09904H214.839V0.29204H216.58C217.362 0.29204 217.949 0.44304 218.338 0.74704C218.728 1.05004 218.923 1.49504 218.923 2.08204C218.923 2.34104 218.878 2.57904 218.788 2.79304C218.698 3.00804 218.569 3.19704 218.401 3.35904C218.232 3.52004 218.029 3.65304 217.79 3.75504C217.551 3.85804 217.282 3.92704 216.984 3.96204C217.061 4.01004 217.13 4.07404 217.191 4.15504L219.534 7.09904ZM217.323 3.54604C217.562 3.47404 217.764 3.37104 217.929 3.23604C218.094 3.10104 218.22 2.93904 218.307 2.75004C218.394 2.56104 218.437 2.34804 218.437 2.11004C218.437 1.62604 218.279 1.26704 217.963 1.03304C217.647 0.79904 217.186 0.68204 216.58 0.68204H215.334V3.65404H216.513C216.814 3.65404 217.084 3.61804 217.323 3.54604ZM207.426 7.09904H206.936V4.29404L204.415 0.29204H204.848C204.893 0.29204 204.93 0.30304 204.959 0.32304C204.988 0.34404 205.012 0.37404 205.031 0.41204L206.979 3.53904C207.021 3.61304 207.059 3.68404 207.094 3.75304C207.13 3.82204 207.16 3.89004 207.186 3.95704C207.211 3.89004 207.24 3.82204 207.272 3.75304C207.304 3.68404 207.341 3.61304 207.383 3.53904L209.331 0.41204C209.347 0.37704 209.37 0.34804 209.401 0.32604C209.431 0.30304 209.469 0.29204 209.514 0.29204H209.947L207.426 4.29404V7.09904ZM203.179 5.23704C203.179 5.52604 203.128 5.78504 203.025 6.01604C202.922 6.24704 202.773 6.44304 202.578 6.60304C202.382 6.76304 202.141 6.88604 201.856 6.97104C201.571 7.05604 201.247 7.09904 200.884 7.09904H198.676V0.29204H200.634C201.022 0.29204 201.359 0.33104 201.644 0.40804C201.93 0.48404 202.165 0.59804 202.352 0.74704C202.537 0.89604 202.675 1.07804 202.765 1.29304C202.855 1.50704 202.9 1.75104 202.9 2.02404C202.9 2.20304 202.869 2.37704 202.806 2.54304C202.744 2.71004 202.654 2.86404 202.537 3.00504C202.42 3.14604 202.275 3.26904 202.104 3.37304C201.932 3.47704 201.736 3.55704 201.514 3.61104C202.05 3.68804 202.461 3.86504 202.748 4.14304C203.035 4.42004 203.179 4.78504 203.179 5.23704ZM201.998 3.03904C202.141 2.90704 202.246 2.75804 202.313 2.59104C202.38 2.42504 202.414 2.25304 202.414 2.07704C202.414 1.61804 202.269 1.27104 201.979 1.03504C201.688 0.80004 201.24 0.68204 200.634 0.68204H199.172V3.47604H200.644C200.958 3.47604 201.227 3.43604 201.45 3.35604C201.672 3.27604 201.855 3.17004 201.998 3.03904ZM202.57 4.64804C202.489 4.47604 202.371 4.33004 202.217 4.21004C202.063 4.09004 201.874 3.99804 201.649 3.93304C201.425 3.86904 201.17 3.83704 200.884 3.83704H199.172V6.70404H200.88C201.476 6.70404 201.927 6.57504 202.234 6.31704C202.54 6.05904 202.693 5.69504 202.693 5.22704C202.693 5.01304 202.652 4.81904 202.57 4.64804ZM188.945 0.14304H193.332V1.17204H190.244V3.10104H192.678V4.09704H190.244V6.06404H193.332V7.09904H188.945V0.14304ZM184.337 2.68304C184.488 2.76004 184.66 2.82904 184.852 2.89004C185.044 2.95004 185.242 3.01504 185.444 3.08404C185.646 3.15304 185.843 3.23404 186.035 3.32504C186.228 3.41604 186.399 3.53204 186.55 3.67104C186.701 3.81104 186.822 3.98104 186.913 4.18304C187.004 4.38604 187.05 4.63104 187.05 4.92004C187.05 5.23404 186.996 5.52804 186.889 5.80204C186.782 6.07604 186.624 6.31504 186.418 6.51904C186.211 6.72304 185.958 6.88304 185.66 6.10004C185.362 7.11704 185.02 7.17604 184.635 7.17604C184.414 7.17604 184.196 7.15404 183.981 7.11104C183.766 7.06704 183.56 7.00604 183.363 6.92504C183.166 6.84504 182.981 6.74904 182.808 6.63704C182.634 6.52504 182.481 6.39904 182.346 6.26104L182.726 5.64104C182.758 5.59604 182.8 5.55804 182.851 5.52804C182.902 5.49704 182.957 5.48204 183.014 5.48204C183.095 5.48204 183.181 5.51504 183.274 5.58104C183.367 5.64704 183.478 5.72004 183.606 5.80004C183.734 5.88004 183.884 5.95304 184.056 6.01904C184.227 6.08404 184.433 6.11704 184.674 6.11704C185.043 6.11704 185.328 6.03004 185.53 5.85504C185.732 5.68004 185.833 5.42904 185.833 5.10204C185.833 4.92004 185.788 4.77004 185.696 4.65504C185.605 4.54004 185.484 4.44304 185.333 4.36404C185.182 4.28504 185.011 4.21904 184.818 4.16404C184.626 4.11004 184.43 4.05104 184.231 3.98604C184.033 3.92204 183.837 3.84504 183.645 3.75504C183.452 3.66604 183.281 3.54804 183.13 3.40404C182.979 3.26004 182.858 3.08004 182.767 2.86304C182.675 2.64704 182.63 2.38004 182.63 2.06204C182.63 1.80904 182.68 1.56204 182.781 1.32104C182.882 1.08104 183.029 0.86804 183.221 0.68204C183.414 0.49604 183.651 0.34704 183.933 0.23404C184.215 0.12204 184.539 0.06604 184.905 0.06604C185.315 0.06604 185.694 0.13004 186.04 0.25804C186.386 0.38704 186.681 0.56604 186.925 0.79704L186.603 1.40804C186.564 1.47504 186.523 1.52404 186.48 1.55504C186.437 1.58504 186.383 1.60004 186.319 1.60004C186.252 1.60004 186.179 1.57604 186.1 1.52604C186.022 1.47604 185.928 1.42104 185.819 1.36004C185.71 1.29904 185.582 1.24404 185.436 1.19404C185.29 1.14404 185.118 1.11904 184.919 1.11904C184.74 1.11904 184.583 1.14104 184.448 1.18404C184.313 1.22804 184.2 1.28804 184.109 1.36504C184.017 1.44204 183.949 1.53404 183.904 1.64104C183.859 1.74904 183.837 1.86704 183.837 1.99504C183.837 2.15804 183.883 2.29504 183.974 2.40404C184.065 2.51304 184.186 2.60604 184.337 2.68304ZM180.133 7.01404C180.063 6.95804 180.01 6.88804 179.974 6.80504L179.455 5.38604H176.574L176.054 6.80504C176.028 6.87904 175.979 6.94604 175.905 7.00704C175.831 7.06804 175.74 7.09904 175.631 7.09904H174.621L177.358 0.14304H178.676L181.408 7.09904H180.407C180.295 7.09904 180.204 7.07004 180.133 7.01404ZM178.276 2.15804C178.235 2.05604 178.191 1.93404 178.146 1.79304C178.102 1.65204 178.057 1.49904 178.012 1.33604C177.97 1.49904 177.927 1.65204 177.882 1.79504C177.837 1.93804 177.794 2.06204 177.752 2.16804L176.91 4.47204H179.123L178.276 2.15804ZM169.849 5.43404C170.038 5.64304 170.261 5.80204 170.517 5.91304C170.774 6.02304 171.05 6.07904 171.345 6.07904C171.521 6.07904 171.681 6.06904 171.823 6.05004C171.966 6.03104 172.098 6.00004 172.218 5.95804C172.338 5.91704 172.452 5.86304 172.559 5.79704C172.667 5.73204 172.773 5.65104 172.879 5.55404C172.911 5.52604 172.945 5.50204 172.98 5.48504C173.016 5.46704 173.052 5.45804 173.091 5.45804C173.161 5.45804 173.224 5.48504 173.279 5.54004L173.788 6.09304C173.506 6.44304 173.159 6.71104 172.747 6.89704C172.335 7.08304 171.84 7.17604 171.263 7.17604C170.747 7.17604 170.283 7.08704 169.87 6.91104C169.458 6.73504 169.106 6.48904 168.815 6.17504C168.523 5.86104 168.299 5.48504 168.144 5.04904C167.988 4.61304 167.91 4.13704 167.91 3.62104C167.91 3.09804 167.994 2.61904 168.16 2.18504C168.327 1.75104 168.562 1.37604 168.865 1.06204C169.168 0.74704 169.53 0.50304 169.95 0.32804C170.37 0.15304 170.835 0.06604 171.345 0.06604C171.851 0.06604 172.301 0.14904 172.694 0.31604C173.087 0.48304 173.421 0.70104 173.697 0.97004L173.264 1.57104C173.238 1.61004 173.206 1.64404 173.166 1.67304C173.125 1.70104 173.07 1.71604 172.1 1.71604C172.951 1.71604 172.902 1.70204 172.85 1.67504C172.799 1.64804 172.743 1.61404 172.682 1.57404C172.621 1.53404 172.551 1.49004 172.47 1.44204C172.39 1.39404 172.297 1.35004 172.191 1.30904C172.086 1.26904 171.963 1.23604 171.823 1.20804C171.684 1.18104 171.523 1.16804 171.34 1.16804C171.029 1.16804 170.744 1.22304 170.486 1.33304C170.228 1.44404 170.006 1.60504 169.82 1.81404C169.634 2.02504 169.49 2.28104 169.387 2.58404C169.284 2.88704 169.233 3.23304 169.233 3.62104C169.233 4.01204 169.288 4.36004 169.399 4.66504C169.51 4.96904 169.66 5.22604 169.849 5.43404ZM163.499 7.09904L161.979 2.34604C161.938 2.23004 161.899 2.09004 161.864 1.92304C161.845 2.00304 161.825 2.07804 161.806 2.14904C161.787 2.21904 161.766 2.28504 161.744 2.34604L160.209 7.09904H159.036L156.881 0.14304H157.963C158.075 0.14304 158.169 0.16904 158.244 0.22204C158.32 0.27504 158.37 0.34704 158.396 0.43604L159.579 4.59704C159.605 4.70004 159.63 4.81104 159.654 4.93204C159.678 5.05204 159.702 5.17804 159.728 5.30904C159.754 5.17404 159.782 5.04804 159.812 4.92904C159.843 4.81104 159.876 4.70004 159.911 4.59704L161.277 0.43604C161.303 0.36204 161.353 0.29504 161.429 0.23404C161.504 0.17304 161.596 0.14304 161.705 0.14304H162.085C162.197 0.14304 162.289 0.17004 162.359 0.22504C162.43 0.27904 162.483 0.35004 162.518 0.43604L163.879 4.59704C163.947 4.79604 164.008 5.02504 164.062 5.28504C164.104 5.03204 164.15 4.80204 164.202 4.59704L165.385 0.43604C165.404 0.35604 165.453 0.28704 165.532 0.22904C165.61 0.17204 165.704 0.14304 165.813 0.14304H166.828L164.668 7.09904H163.499ZM154.841 6.16504C154.533 6.48304 154.163 6.73004 153.73 6.90904C153.297 7.08604 152.816 7.17604 152.287 7.17604C151.761 7.17604 151.281 7.08604 150.849 6.90904C150.416 6.73004 150.044 6.48304 149.735 6.16504C149.425 5.84804 149.186 5.47204 149.016 5.03704C148.846 4.60304 148.761 4.13004 148.761 3.62104C148.761 3.11104 148.846 2.63904 149.016 2.20404C149.186 1.77004 149.425 1.39404 149.735 1.07604C150.044 0.75904 150.416 0.51104 150.849 0.33304C151.281 0.15504 151.761 0.06604 152.287 0.06604C152.64 0.06604 152.971 0.10704 153.283 0.18904C153.594 0.27004 153.879 0.38604 154.139 0.53504C154.398 0.68404 154.632 0.86504 154.839 1.07904C155.045 1.29204 155.221 1.53004 155.365 1.79304C155.51 2.05604 155.619 2.34104 155.695 2.64904C155.77 2.95704 155.808 3.28104 155.808 3.62104C155.808 4.13004 155.724 4.60304 155.555 5.03704C155.387 5.47204 155.149 5.84804 154.841 6.16504ZM154.331 2.59404C154.228 2.29104 154.083 2.03304 153.893 1.82204C153.704 1.61004 153.474 1.44804 153.203 1.33604C152.932 1.22404 152.627 1.16804 152.287 1.16804C151.947 1.16804 151.641 1.22404 151.37 1.33604C151.099 1.44804 150.869 1.61004 150.678 1.82204C150.487 2.03304 150.34 2.29104 150.238 2.59404C150.135 2.89704 150.084 3.23904 150.084 3.62104C150.084 4.00204 150.135 4.34504 150.238 4.64804C150.34 4.95104 150.487 5.20704 150.678 5.41704C150.869 5.62704 151.099 5.78804 151.37 5.90104C151.641 6.01304 151.947 6.06904 152.287 6.06904C152.627 6.06904 152.932 6.01304 153.203 5.90104C153.474 5.78804 153.704 5.62704 153.893 5.41704C154.083 5.20704 154.228 4.95104 154.331 4.64804C154.434 4.34504 154.485 4.00204 154.485 3.62104C154.485 3.23904 154.434 2.89704 154.331 2.59404ZM145.557 4.05804H142.291V7.09904H140.992V0.14304H142.291V3.13504H145.557V0.14304H146.856V7.09904H145.557V4.05804ZM136.384 2.68304C136.535 2.76004 136.707 2.82904 136.899 2.89004C137.091 2.95004 137.289 3.01504 137.491 3.08404C137.693 3.15304 137.89 3.23404 138.082 3.32504C138.275 3.41604 138.446 3.53204 138.597 3.67104C138.748 3.81104 138.869 3.98104 138.96 4.18304C139.052 4.38604 139.097 4.63104 139.097 4.92004C139.097 5.23404 139.043 5.52804 138.936 5.80204C138.829 6.07604 138.671 6.31504 138.465 6.51904C138.258 6.72304 138.005 6.88304 137.707 6.10004C137.409 7.11704 137.067 7.17604 136.682 7.17604C136.461 7.17604 136.243 7.15404 136.028 7.11104C135.813 7.06704 135.607 7.00604 135.41 6.92504C135.213 6.84504 135.028 6.74904 134.855 6.63704C134.681 6.52504 134.528 6.39904 134.393 6.26104L134.773 5.64104C134.805 5.59604 134.847 5.55804 134.898 5.52804C134.949 5.49704 135.004 5.48204 135.061 5.48204C135.142 5.48204 135.228 5.51504 135.321 5.58104C135.414 5.64704 135.525 5.72004 135.653 5.80004C135.781 5.88004 135.931 5.95304 136.103 6.01904C136.274 6.08404 136.48 6.11704 136.721 6.11704C137.09 6.11704 137.375 6.03004 137.577 5.85504C137.779 5.68004 137.88 5.42904 137.88 5.10204C137.88 4.92004 137.835 4.77004 137.743 4.65504C137.652 4.54004 137.531 4.44304 137.38 4.36404C137.229 4.28504 137.058 4.21904 136.865 4.16404C136.673 4.11004 136.477 4.05104 136.278 3.98604C136.08 3.92204 135.884 3.84504 135.692 3.75504C135.499 3.66604 135.328 3.54804 135.177 3.40404C135.026 3.26004 134.905 3.08004 134.814 2.86304C134.722 2.64704 134.677 2.38004 134.677 2.06204C134.677 1.80904 134.727 1.56204 134.828 1.32104C134.929 1.08104 135.076 0.86804 135.268 0.68204C135.461 0.49604 135.698 0.34704 135.98 0.23404C136.262 0.12204 136.586 0.06604 136.952 0.06604C137.362 0.06604 137.741 0.13004 138.087 0.25804C138.433 0.38704 138.728 0.56604 138.972 0.79704L138.65 1.40804C138.611 1.47504 138.57 1.52404 138.527 1.55504C138.484 1.58504 138.43 1.60004 138.366 1.60004C138.299 1.60004 138.226 1.57604 138.147 1.52604C138.069 1.47604 137.975 1.42104 137.866 1.36004C137.757 1.29904 137.629 1.24404 137.483 1.19404C137.337 1.14404 137.165 1.11904 136.966 1.11904C136.787 1.11904 136.63 1.14104 136.495 1.18404C136.36 1.22804 136.247 1.28804 136.156 1.36504C136.064 1.44204 135.996 1.53404 135.951 1.64104C135.906 1.74904 135.884 1.86704 135.884 1.99504C135.884 2.15804 135.93 2.29504 136.021 2.40404C136.112 2.51304 136.233 2.60604 136.384 2.68304ZM128.599 7.04804C128.53 7.01404 128.463 6.95704 128.399 6.87704L124.768 2.24004C124.787 2.45204 124.796 2.64704 124.796 2.82704V7.09904H123.656V0.14304H124.335C124.389 0.14304 124.436 0.14504 124.477 0.15004C124.517 0.15504 124.552 0.16404 124.582 0.17904C124.613 0.19304 124.643 0.21404 124.671 0.24104C124.7 0.26904 124.732 0.30504 124.768 0.35004L128.414 5.00604C128.404 4.89404 128.396 4.78304 128.39 4.67404C128.383 4.56504 128.38 4.46404 128.38 4.37104V0.14304H129.52V7.09904H128.856C128.754 7.09904 128.668 7.08204 128.599 7.04804ZM120.78 6.16504C120.472 6.48304 120.102 6.73004 119.669 6.90904C119.236 7.08604 118.755 7.17604 118.226 7.17604C117.7 7.17604 117.22 7.08604 116.787 6.90904C116.355 6.73004 115.983 6.48304 115.674 6.16504C115.364 5.84804 115.125 5.47204 114.955 5.03704C114.785 4.60304 114.7 4.13004 114.7 3.62104C114.7 3.11104 114.785 2.63904 114.955 2.20404C115.125 1.77004 115.364 1.39404 115.674 1.07604C115.983 0.75904 116.355 0.51104 116.787 0.33304C117.22 0.15504 117.7 0.06604 118.226 0.06604C118.578 0.06604 118.91 0.10704 119.221 0.18904C119.532 0.27004 119.818 0.38604 120.078 0.53504C120.337 0.68404 120.571 0.86504 120.778 1.07904C120.984 1.29204 121.16 1.53004 121.304 1.79304C121.449 2.05604 121.558 2.34104 121.634 2.64904C121.709 2.95704 121.747 3.28104 121.747 3.62104C121.747 4.13004 121.663 4.60304 121.494 5.03704C121.326 5.47204 121.088 5.84804 120.78 6.16504ZM120.27 2.59404C120.167 2.29104 120.022 2.03304 119.832 1.82204C119.643 1.61004 119.413 1.44804 119.142 1.33604C118.871 1.22404 118.566 1.16804 118.226 1.16804C117.886 1.16804 117.58 1.22404 117.309 1.33604C117.038 1.44804 116.807 1.61004 116.617 1.82204C116.426 2.03304 116.279 2.29104 116.177 2.59404C116.074 2.89704 116.023 3.23904 116.023 3.62104C116.023 4.00204 116.074 4.34504 116.177 4.64804C116.279 4.95104 116.426 5.20704 116.617 5.41704C116.807 5.62704 117.038 5.78804 117.309 5.90104C117.58 6.01304 117.886 6.06904 118.226 6.06904C118.566 6.06904 118.871 6.01304 119.142 5.90104C119.413 5.78804 119.643 5.62704 119.832 5.41704C120.022 5.20704 120.167 4.95104 120.27 4.64804C120.373 4.34504 120.424 4.00204 120.424 3.62104C120.424 3.23904 120.373 2.89704 120.27 2.59404ZM111.491 0.14304H112.79V7.09904H111.491V0.14304ZM107.711 7.09904H106.417V1.20604H104.319V0.14304H109.808V1.20604H107.711V7.09904ZM99.3501 5.43404C99.5401 5.64304 99.7621 5.80204 100.019 5.91304C100.276 6.02304 100.551 6.07904 100.846 6.07904C101.023 6.07904 101.182 6.06904 101.325 6.05004C101.468 6.03104 101.599 6.00004 101.719 5.95804C101.84 5.91704 101.954 5.86304 102.061 5.79704C102.168 5.73204 102.275 5.65104 102.381 5.55404C102.413 5.52604 102.447 5.50204 102.482 5.48504C102.517 5.46704 102.554 5.45804 102.593 5.45804C102.663 5.45804 102.725 5.48504 102.78 5.54004L103.29 6.09304C103.008 6.44304 102.661 6.71104 102.249 6.89704C101.836 7.08304 101.342 7.17604 100.765 7.17604C100.248 7.17604 99.7841 7.08704 99.3721 6.91104C98.9601 6.73504 98.6081 6.48904 98.3161 6.17504C98.0241 5.86104 97.8011 5.48504 97.6451 5.04904C97.4901 4.61304 97.4121 4.13704 97.4121 3.62104C97.4121 3.09804 97.4951 2.61904 97.6621 2.18504C97.8291 1.75104 98.0641 1.37604 98.3671 1.06204C98.6701 0.74704 99.0311 0.50304 99.4511 0.32804C99.8711 0.15304 100.337 0.06604 100.846 0.06604C101.353 0.06604 101.803 0.14904 102.196 0.31604C102.588 0.48304 102.923 0.70104 103.199 0.97004L102.766 1.57104C102.74 1.61004 102.707 1.64404 102.667 1.67304C102.627 1.70104 102.572 1.71604 102.501 1.71604C102.453 1.71604 102.403 1.70204 102.352 1.67504C102.301 1.64804 102.245 1.61404 102.184 1.57404C102.123 1.53404 102.052 1.49004 101.972 1.44204C101.892 1.39404 101.799 1.35004 101.693 1.30904C101.587 1.26904 101.465 1.23604 101.325 1.20804C101.186 1.18104 101.024 1.16804 100.842 1.16804C100.531 1.16804 100.246 1.22304 99.9881 1.33304C99.7301 1.44404 99.5081 1.60504 99.3221 1.81404C99.1361 2.02504 98.9911 2.28104 98.8891 2.58404C98.7861 2.88704 98.7351 3.23304 98.7351 3.62104C98.7351 4.01204 98.7901 4.36004 98.9011 4.66504C99.0111 4.96904 99.1611 5.22604 99.3501 5.43404ZM91.6641 0.14304H96.0511V1.17204H92.9621V3.10104H95.3961V4.09704H92.9621V6.06404H96.0511V7.09904H91.6641V0.14304ZM85.8961 0.14304H87.1901V6.03104H89.9711V7.09904H85.8961V0.14304ZM80.1291 0.14304H81.4231V6.03104H84.2031V7.09904H80.1291V0.14304ZM77.2521 6.16504C76.9441 6.48304 76.5741 6.73004 76.1411 6.90904C75.7081 7.08604 75.2271 7.17604 74.6981 7.17604C74.1721 7.17604 73.6931 7.08604 73.2601 6.90904C72.8271 6.73004 72.4561 6.48304 72.1461 6.16504C71.8371 5.84804 71.5971 5.47204 71.4271 5.03704C71.2571 4.60304 71.1721 4.13004 71.1721 3.62104C71.1721 3.11104 71.2571 2.63904 71.4271 2.20404C71.5971 1.77004 71.8371 1.39404 72.1461 1.07604C72.4561 0.75904 72.8271 0.51104 73.2601 0.33304C73.6931 0.15504 74.1721 0.06604 74.6981 0.06604C75.0511 0.06604 75.3831 0.10704 75.6941 0.18904C76.0051 0.27004 76.2901 0.38604 76.5501 0.53504C76.8101 0.68404 77.0431 0.86504 77.2501 1.07904C77.4571 1.29204 77.6321 1.53004 77.7771 1.79304C77.9211 2.05604 78.0311 2.34104 78.1061 2.64904C78.1811 2.95704 78.2191 3.28104 78.2191 3.62104C78.2191 4.13004 78.1351 4.60304 77.9671 5.03704C77.7981 5.47204 77.5601 5.84804 77.2521 6.16504ZM76.7421 2.59404C76.6401 2.29104 76.4941 2.03304 76.3051 1.82204C76.1151 1.61004 75.8851 1.44804 75.6141 1.33604C75.3431 1.22404 75.0381 1.16804 74.6981 1.16804C74.3581 1.16804 74.0531 1.22404 73.7821 1.33604C73.5111 1.44804 73.2801 1.61004 73.0891 1.82204C72.8981 2.03304 72.7521 2.29104 72.6491 2.59404C72.5461 2.89704 72.4951 3.23904 72.4951 3.62104C72.4951 4.00204 72.5461 4.34504 72.6491 4.64804C72.7521 4.95104 72.8981 5.20704 73.0891 5.41704C73.2801 5.62704 73.5111 5.78804 73.7821 5.90104C74.0531 6.01304 74.3581 6.06904 74.6981 6.06904C75.0381 6.06904 75.3431 6.01304 75.6141 5.90104C75.8851 5.78804 76.1151 5.62704 76.3051 5.41704C76.4941 5.20704 76.6401 4.95104 76.7421 4.64804C76.8451 4.34504 76.8961 4.00204 76.8961 3.62104C76.8961 3.23904 76.8451 2.89704 76.7421 2.59404ZM66.1361 5.43404C66.3251 5.64304 66.5481 5.80204 66.8051 5.91304C67.0611 6.02304 67.3371 6.07904 67.6321 6.07904C67.8081 6.07904 67.9681 6.06904 68.1101 6.05004C68.2531 6.03104 68.3851 6.00004 68.5051 5.95804C68.6251 5.91704 68.7391 5.86304 68.8461 5.79704C68.9541 5.73204 69.0611 5.65104 69.1661 5.55404C69.1981 5.52604 69.2321 5.50204 69.2671 5.48504C69.3031 5.46704 69.3401 5.45804 69.3781 5.45804C69.4491 5.45804 69.5111 5.48504 69.5661 5.54004L70.0751 6.09304C69.7931 6.44304 69.4461 6.71104 69.0341 6.89704C68.6221 7.08304 68.1271 7.17604 67.5501 7.17604C67.0341 7.17604 66.5701 7.08704 66.1581 6.91104C65.7451 6.73504 65.3931 6.48904 65.1021 6.17504C64.8101 5.86104 64.5861 5.48504 64.4311 5.04904C64.2751 4.61304 64.1971 4.13704 64.1971 3.62104C64.1971 3.09804 64.2811 2.61904 64.4481 2.18504C64.6141 1.75104 64.8491 1.37604 65.1521 1.06204C65.4551 0.74704 65.8171 0.50304 66.2371 0.32804C66.6571 0.15304 67.1221 0.06604 67.6321 0.06604C68.1391 0.06604 68.5881 0.14904 68.9811 0.31604C69.3741 0.48304 69.7081 0.70104 69.9841 0.97004L69.5511 1.57104C69.5251 1.61004 69.4931 1.64404 69.4531 1.67304C69.4121 1.70104 69.3571 1.71604 69.2871 1.71604C69.2381 1.71604 69.1891 1.70204 69.1371 1.67504C69.0861 1.64804 69.0301 1.61404 68.9691 1.57404C68.9081 1.53404 68.8381 1.49004 68.7571 1.44204C68.6771 1.39404 68.5841 1.35004 68.4781 1.30904C68.3731 1.26904 68.2501 1.23604 68.1101 1.20804C67.9711 1.18104 67.8101 1.16804 67.6271 1.16804C67.3161 1.16804 67.0311 1.22304 66.7731 1.33304C66.5151 1.44404 66.2931 1.60504 66.1071 1.81404C65.9211 2.02504 65.7771 2.28104 65.6741 2.58404C65.5711 2.88704 65.5201 3.23304 65.5201 3.62104C65.5201 4.01204 65.5761 4.36004 65.6861 4.66504C65.7971 4.96904 65.9471 5.22604 66.1361 5.43404ZM58.7571 7.09904C58.6351 7.09904 58.5371 7.08404 58.4611 7.05504C58.3861 7.02604 58.3061 6.96504 58.2231 6.87204L57.7421 6.37704C57.4371 6.62704 57.0961 6.82304 56.7181 6.96404C56.3391 7.10504 55.9301 7.17604 55.4911 7.17604C55.2251 7.17604 54.9631 7.13004 54.7041 7.03804C54.4461 6.94704 54.2161 6.81504 54.0141 6.64204C53.8121 6.46804 53.6491 6.25904 53.5261 6.01404C53.4031 5.76804 53.3411 5.49204 53.3411 5.18404C53.3411 4.96604 53.3761 4.76004 53.4471 4.56604C53.5171 4.37204 53.6151 4.19104 53.7401 4.02504C53.8651 3.85804 54.0141 3.70804 54.1871 3.57504C54.3601 3.44204 54.5501 3.32704 54.7551 3.23104C54.5821 2.99104 54.4571 2.75604 54.3801 2.52604C54.3031 2.29704 54.2641 2.06904 54.2641 1.84104C54.2641 1.60004 54.3081 1.37204 54.3971 1.15604C54.4851 0.93904 54.6121 0.75104 54.7791 0.59004C54.9461 0.43004 55.1511 0.30304 55.3951 0.20804C55.6381 0.11304 55.9141 0.06604 56.2221 0.06604C56.5041 0.06604 56.7571 0.10904 56.9801 0.19604C57.2031 0.28204 57.3931 0.39804 57.5521 0.54204C57.7111 0.68704 57.8361 0.85204 57.9271 1.03804C58.0191 1.22404 58.0721 1.41604 58.0881 1.61504L57.3331 1.77404C57.1921 1.80204 57.0901 1.74104 57.0251 1.59104C56.9961 1.50704 56.9591 1.42804 56.9121 1.35304C56.8661 1.27704 56.8101 1.21204 56.7461 1.15604C56.6821 1.10004 56.6071 1.05404 56.5201 1.02104C56.4341 0.98704 56.3341 0.97004 56.2221 0.97004C56.0871 0.97004 55.9671 0.99404 55.8611 1.04004C55.7551 1.08704 55.6661 1.14904 55.5941 1.22804C55.5221 1.30604 55.4671 1.39804 55.4281 1.50204C55.3901 1.60604 55.3711 1.71604 55.3711 1.83104C55.3711 1.92704 55.3801 2.02104 55.4001 2.11004C55.4191 2.20004 55.4511 2.29004 55.4961 2.38004C55.5411 2.47004 55.5991 2.56204 55.6711 2.65604C55.7431 2.75104 55.8321 2.85304 55.9381 2.96204L57.7851 4.88104C57.8911 4.67904 57.9761 4.46604 58.0401 4.24104C58.1041 4.01704 58.1461 3.78904 58.1651 3.55804C58.1751 3.48404 58.2011 3.42504 58.2421 3.38004C58.2841 3.33504 58.3421 3.31304 58.4161 3.31304H59.1561C59.1531 3.73604 59.0921 4.14004 58.9741 4.52504C58.8551 4.91004 58.6851 5.26404 58.4641 5.58804L59.9211 7.09904H58.7571ZM55.2891 3.84704C55.0321 4.01404 54.8461 4.20204 54.7281 4.41204C54.6111 4.62204 54.5531 4.84704 54.5531 5.08804C54.5531 5.26404 54.5831 5.42304 54.6441 5.56404C54.7051 5.70504 54.7881 5.82504 54.8921 5.92204C54.9961 6.02004 55.1181 6.09604 55.2581 6.14804C55.3971 6.20104 55.5451 6.22804 55.7031 6.22804C55.9851 6.22804 56.2431 6.18404 56.4771 6.09604C56.7111 6.00804 56.9231 5.88504 57.1121 5.72804L55.2891 3.84704ZM46.2261 7.17604C45.6591 7.17604 45.1451 7.08704 44.6851 6.91104C44.2251 6.73504 43.8321 6.48904 43.5061 6.17504C43.1811 5.86104 42.9301 5.48504 42.7531 5.04904C42.5771 4.61304 42.4891 4.13704 42.4891 3.62104C42.4891 3.09804 42.5741 2.61904 42.7441 2.18204C42.9141 1.74604 43.1551 1.37104 43.4681 1.05704C43.7801 0.74304 44.1601 0.49904 44.6051 0.32604C45.0511 0.15204 45.5511 0.06604 46.1061 0.06604C46.3881 0.06604 46.6521 0.08804 46.8971 0.13304C47.1431 0.17804 47.3701 0.24004 47.5811 0.31904C47.7901 0.39704 47.9821 0.49304 48.1551 0.60504C48.3291 0.71704 48.4871 0.84004 48.6321 0.97504L48.2611 1.56204C48.2031 1.65504 48.1281 1.71204 48.0351 1.73304C47.9421 1.75404 47.8411 1.73004 47.7321 1.66304C47.6261 1.60204 47.5201 1.54104 47.4151 1.48004C47.3091 1.41904 47.1911 1.36704 47.0611 1.32104C46.9311 1.27704 46.7851 1.24004 46.6231 1.21104C46.4611 1.18204 46.2751 1.16804 46.0631 1.16804C45.7201 1.16804 45.4091 1.22504 45.1321 1.34104C44.8551 1.45604 44.6181 1.62104 44.4231 1.83604C44.2271 2.05104 44.0761 2.30904 43.9711 2.61104C43.8651 2.91204 43.8121 3.24904 43.8121 3.62104C43.8121 4.01904 43.8691 4.37404 43.9821 4.68604C44.0961 4.99904 44.2571 5.26304 44.4641 5.48004C44.6701 5.69604 44.9201 5.86104 45.2121 5.97504C45.5031 6.08904 45.8291 6.14604 46.1881 6.14604C46.4441 6.14604 46.6741 6.11904 46.8761 6.06404C47.0781 6.01004 47.2751 5.93604 47.4671 5.84304V4.58304H46.5921C46.5091 4.58304 46.4441 4.56004 46.3971 4.51304C46.3511 4.46704 46.3271 4.40904 46.3271 4.34204V3.61104H48.6361V6.42504C48.2841 6.68504 47.9081 6.87504 47.5081 6.99504C47.1091 7.11504 46.6821 7.17604 46.2261 7.17604ZM40.0261 6.16504C39.7181 6.48304 39.3481 6.73004 38.9151 6.90904C38.4821 7.08604 38.0011 7.17604 37.4721 7.17604C36.9461 7.17604 36.4671 7.08604 36.0341 6.90904C35.6011 6.73004 35.2291 6.48304 34.9201 6.16504C34.6111 5.84804 34.3711 5.47204 34.2011 5.03704C34.0311 4.60304 33.9461 4.13004 33.9461 3.62104C33.9461 3.11104 34.0311 2.63904 34.2011 2.20404C34.3711 1.77004 34.6111 1.39404 34.9201 1.07604C35.2291 0.75904 35.6011 0.51104 36.0341 0.33304C36.4671 0.15504 36.9461 0.06604 37.4721 0.06604C37.8251 0.06604 38.1571 0.10704 38.4681 0.18904C38.7791 0.27004 39.0641 0.38604 39.3241 0.53504C39.5841 0.68404 39.8171 0.86504 40.0241 1.07904C40.2311 1.29204 40.4061 1.53004 40.5501 1.79304C40.6951 2.05604 40.8041 2.34104 40.8801 2.64904C40.9551 2.95704 40.9931 3.28104 40.9931 3.62104C40.9931 4.13004 40.9091 4.60304 40.7401 5.03704C40.5721 5.47204 40.3341 5.84804 40.0261 6.16504ZM39.5161 2.59404C39.4141 2.29104 39.2681 2.03304 39.0781 1.82204C38.8891 1.61004 38.6591 1.44804 38.3881 1.33604C38.1171 1.22404 37.8121 1.16804 37.4721 1.16804C37.1321 1.16804 36.8271 1.22404 36.5561 1.33604C36.2841 1.44804 36.0541 1.61004 35.8631 1.82204C35.6721 2.03304 35.5251 2.29104 35.4231 2.59404C35.3201 2.89704 35.2691 3.23904 35.2691 3.62104C35.2691 4.00204 35.3201 4.34504 35.4231 4.64804C35.5251 4.95104 35.6721 5.20704 35.8631 5.41704C36.0541 5.62704 36.2841 5.78804 36.5561 5.90104C36.8271 6.01304 37.1321 6.06904 37.4721 6.06904C37.8121 6.06904 38.1171 6.01304 38.3881 5.90104C38.6591 5.78804 38.8891 5.62704 39.0781 5.41704C39.2681 5.20704 39.4141 4.95104 39.5161 4.64804C39.6191 4.34504 39.6701 4.00204 39.6701 3.62104C39.6701 3.23904 39.6191 2.89704 39.5161 2.59404ZM28.8381 0.14304H30.1321V6.03104H32.9121V7.09904H28.8381V0.14304ZM24.9611 3.84204L27.3751 7.09904H26.2351C26.0811 7.09904 25.9671 7.07704 25.8911 7.03304C25.8161 6.99004 25.7531 6.92704 25.7011 6.84404L23.7341 4.27504C23.6731 4.18804 23.6021 4.12704 23.5221 4.09204C23.4421 4.05704 23.3271 4.03904 23.1761 4.03904H22.7671V7.09904H21.4731V0.14304H22.7671V3.05804H23.0701C23.1921 3.05804 23.2931 3.04104 23.3731 3.00804C23.4531 2.97404 23.5221 2.92004 23.5801 2.84604L25.4991 0.41704C25.5791 0.31504 25.6641 0.24304 25.7521 0.20304C25.8401 0.16304 25.9511 0.14304 26.0861 0.14304H27.2021L24.8591 3.03404C24.7221 3.21004 24.5791 3.33504 24.4311 3.40904C24.5371 3.44804 24.6331 3.50104 24.7181 3.57004C24.8031 3.63904 24.8841 3.73004 24.9611 3.84204ZM15.8741 5.43404C16.0631 5.64304 16.2861 5.80204 16.5431 5.91304C16.7991 6.02304 17.0751 6.07904 17.3701 6.07904C17.5461 6.07904 17.7061 6.06904 17.8491 6.05004C17.9911 6.03104 18.1231 6.00004 18.2431 5.95804C18.3631 5.91704 18.4771 5.86304 18.5851 5.79704C18.6921 5.73204 18.7991 5.65104 18.9041 5.55404C18.9361 5.52604 18.9701 5.50204 19.0051 5.48504C19.0411 5.46704 19.0781 5.45804 19.1161 5.45804C19.1871 5.45804 19.2491 5.48504 19.3041 5.54004L19.8141 6.09304C19.5311 6.44304 19.1841 6.71104 18.7721 6.89704C18.3601 7.08304 17.8651 7.17604 17.2881 7.17604C16.7721 7.17604 16.3081 7.08704 15.8961 6.91104C15.4841 6.73504 15.1321 6.48904 14.8401 6.17504C14.5481 5.86104 14.3241 5.48504 14.1691 5.04904C14.0131 4.61304 13.9351 4.13704 13.9351 3.62104C13.9351 3.09804 14.0191 2.61904 14.1861 2.18504C14.3521 1.75104 14.5871 1.37604 14.8901 1.06204C15.1931 0.74704 15.5551 0.50304 15.9751 0.32804C16.3951 0.15304 16.8601 0.06604 17.3701 0.06604C17.8771 0.06604 18.3261 0.14904 18.7191 0.31604C19.1121 0.48304 19.4461 0.70104 19.7221 0.97004L19.2891 1.57104C19.2641 1.61004 19.2311 1.64404 19.1911 1.67304C19.1501 1.70104 19.0951 1.71604 19.0251 1.71604C18.9771 1.71604 18.9271 1.70204 18.8761 1.67504C18.8241 1.64804 18.7681 1.61404 18.7071 1.57404C18.6461 1.53404 18.5761 1.49004 18.4961 1.44204C18.4151 1.39404 18.3221 1.35004 18.2171 1.30904C18.1111 1.26904 17.9881 1.23604 17.8491 1.20804C17.7091 1.18104 17.5481 1.16804 17.3651 1.16804C17.0541 1.16804 16.7691 1.22304 16.5111 1.33304C16.2531 1.44404 16.0311 1.60504 15.8451 1.81404C15.6591 2.02504 15.5151 2.28104 15.4121 2.58404C15.3101 2.88704 15.2581 3.23304 15.2581 3.62104C15.2581 4.01204 15.3141 4.36004 15.4241 4.66504C15.5351 4.96904 15.6851 5.22604 15.8741 5.43404ZM11.7811 7.01404C11.7101 6.95804 11.6571 6.88804 11.6221 6.80504L11.1021 5.38604H8.22107L7.70107 6.80504C7.67607 6.87904 7.62607 6.94604 7.55207 7.00704C7.47907 7.06804 7.38707 7.09904 7.27807 7.09904H6.26807L9.00507 0.14304H10.3231L13.0551 7.09904H12.0551C11.9421 7.09904 11.8511 7.07004 11.7811 7.01404ZM9.92407 2.15804C9.88207 2.05604 9.83907 1.93404 9.79407 1.79304C9.74907 1.65204 9.70407 1.49904 9.65907 1.33604C9.61807 1.49904 9.57407 1.65204 9.52907 1.79504C9.48407 1.93804 9.44107 2.06204 9.40007 2.16804L8.55807 4.47204H10.7701L9.92407 2.15804ZM5.09007 5.87204C4.97707 6.12204 4.81407 6.33804 4.59907 6.51904C4.38407 6.70004 4.11907 6.84204 3.80507 6.94504C3.49107 7.04704 3.13207 7.09904 2.72807 7.09904H0.101074V0.14304H2.49707C2.95207 0.14304 3.34207 0.18604 3.66607 0.27304C3.99007 0.35904 4.25507 0.48304 4.46207 0.64304C4.66907 0.80404 4.82007 0.99804 4.91607 1.22504C5.01307 1.45304 5.06107 1.70904 5.06107 1.99504C5.06107 2.15804 5.03707 2.31504 4.98807 2.46404C4.94007 2.61304 4.86607 2.75204 4.76507 2.88204C4.66407 3.01204 4.53607 3.13004 4.38007 3.23604C4.22407 3.34204 4.03907 3.43204 3.82407 3.50504C4.78007 3.72004 5.25807 4.23604 5.25807 5.05404C5.25807 5.34904 5.20207 5.62204 5.09007 5.87204ZM3.45907 1.37404C3.25407 1.22004 2.93307 1.14304 2.49707 1.14304H1.39507V3.15404H2.42507C2.86707 3.15404 3.20207 3.07404 3.42807 2.91404C3.65407 2.75304 3.76707 2.49804 3.76707 2.14904C3.76707 1.78604 3.66407 1.52804 3.45907 1.37404ZM3.90607 4.61904C3.85807 4.49804 3.78307 4.39604 3.68007 4.31104C3.57707 4.22604 3.44507 4.16104 3.28307 4.11604C3.12107 4.07104 2.92707 4.04904 2.69907 4.04904H1.39507V6.08804H2.70407C2.94407 6.08804 3.14607 6.05904 3.31007 6.00204C3.47307 5.94404 3.60407 5.86704 3.70207 5.77104C3.80007 5.67504 3.87007 5.56204 3.91307 5.43404C3.95707 5.30604 3.97807 5.17004 3.97807 5.02504C3.97807 4.87504 3.95407 4.73904 3.90607 4.61904Z" fill="white"/>
</g>
<defs>
<clipPath id="clip0_141_237">
<rect width="293" height="8" fill="white"/>
</clipPath>
</defs>
</svg>
