<svg width="188" height="14" viewBox="0 0 188 14" fill="none" xmlns="http://www.w3.org/2000/svg">
<g clip-path="url(#clip0_141_233)">
<path d="M1.71 12.812C1.578 12.812 1.47 12.77 1.386 12.686C1.302 12.602 1.26 12.494 1.26 12.362V0.662012C1.26 0.530011 1.302 0.422011 1.386 0.338011C1.47 0.254011 1.578 0.212011 1.71 0.212011H7.2C8.232 0.212011 9.078 0.356011 9.738 0.644011C10.398 0.932011 10.884 1.34601 11.196 1.88601C11.52 2.41401 11.682 3.04401 11.682 3.77601C11.682 4.20801 11.598 4.59201 11.43 4.92801C11.274 5.25201 11.076 5.52201 10.836 5.73801C10.608 5.95401 10.392 6.11001 10.188 6.20601C10.644 6.42201 11.046 6.77601 11.394 7.26801C11.754 7.76001 11.934 8.33601 11.934 8.99601C11.934 9.78801 11.754 10.472 11.394 11.048C11.046 11.612 10.53 12.05 9.846 12.362C9.174 12.662 8.346 12.812 7.362 12.812H1.71ZM4.482 10.472H7.002C7.518 10.472 7.908 10.322 8.172 10.022C8.436 9.72201 8.568 9.38001 8.568 8.99601C8.568 8.57601 8.43 8.22201 8.154 7.93401C7.89 7.64601 7.506 7.50201 7.002 7.50201H4.482V10.472ZM4.482 5.21601H6.84C7.332 5.21601 7.698 5.09001 7.938 4.83801C8.19 4.58601 8.316 4.26201 8.316 3.86601C8.316 3.48201 8.19 3.17001 7.938 2.93001C7.698 2.67801 7.332 2.55201 6.84 2.55201H4.482V5.21601ZM14.2913 12.812C14.1593 12.812 14.0513 12.77 13.9673 12.686C13.8833 12.602 13.8413 12.494 13.8413 12.362V3.90201C13.8413 3.77001 13.8833 3.66201 13.9673 3.57801C14.0513 3.49401 14.1593 3.45201 14.2913 3.45201H16.4153C16.5353 3.45201 16.6373 3.49401 16.7213 3.57801C16.8173 3.66201 16.8653 3.77001 16.8653 3.90201V12.362C16.8653 12.494 16.8173 12.602 16.7213 12.686C16.6373 12.77 16.5353 12.812 16.4153 12.812H14.2913ZM14.2733 2.10201C14.1413 2.10201 14.0333 2.06001 13.9493 1.97601C13.8653 1.89201 13.8233 1.78401 13.8233 1.65201V0.0500108C13.8233 -0.0819889 13.8653 -0.189989 13.9493 -0.273989C14.0333 -0.369989 14.1413 -0.417989 14.2733 -0.417989H16.4153C16.5473 -0.417989 16.6553 -0.369989 16.7393 -0.273989C16.8353 -0.189989 16.8833 -0.0819889 16.8833 0.0500108V1.65201C16.8833 1.78401 16.8353 1.89201 16.7393 1.97601C16.6553 2.06001 16.5473 2.10201 16.4153 2.10201H14.2733ZM23.382 12.992C21.966 12.992 20.838 12.608 19.998 11.84C19.158 11.072 18.72 9.93201 18.684 8.42001C18.684 8.33601 18.684 8.22801 18.684 8.09601C18.684 7.96401 18.684 7.86201 18.684 7.79001C18.72 6.84201 18.93 6.03201 19.314 5.36001C19.71 4.67601 20.25 4.16001 20.934 3.81201C21.63 3.45201 22.44 3.27201 23.364 3.27201C24.42 3.27201 25.29 3.48201 25.974 3.90201C26.67 4.32201 27.192 4.89201 27.54 5.61201C27.888 6.33201 28.062 7.15401 28.062 8.07801V8.51001C28.062 8.64201 28.014 8.75001 27.918 8.83401C27.834 8.91801 27.732 8.96001 27.612 8.96001H21.852C21.852 8.97201 21.852 8.99001 21.852 9.01401C21.852 9.03801 21.852 9.06201 21.852 9.08601C21.864 9.43401 21.924 9.75201 22.032 10.04C22.14 10.328 22.308 10.556 22.536 10.724C22.764 10.892 23.04 10.976 23.364 10.976C23.604 10.976 23.802 10.94 23.958 10.868C24.126 10.784 24.264 10.694 24.372 10.598C24.48 10.49 24.564 10.4 24.624 10.328C24.732 10.208 24.816 10.136 24.876 10.112C24.948 10.076 25.056 10.058 25.2 10.058H27.432C27.552 10.058 27.648 10.094 27.72 10.166C27.804 10.226 27.84 10.316 27.828 10.436C27.816 10.64 27.714 10.886 27.522 11.174C27.33 11.462 27.048 11.75 26.676 12.038C26.316 12.314 25.86 12.542 25.308 12.722C24.756 12.902 24.114 12.992 23.382 12.992ZM21.852 7.17801H24.894V7.14201C24.894 6.75801 24.834 6.42201 24.714 6.13401C24.606 5.84601 24.432 5.62401 24.192 5.46801C23.964 5.31201 23.688 5.23401 23.364 5.23401C23.04 5.23401 22.764 5.31201 22.536 5.46801C22.32 5.62401 22.152 5.84601 22.032 6.13401C21.912 6.42201 21.852 6.75801 21.852 7.14201V7.17801ZM30.1995 12.812C30.0675 12.812 29.9595 12.77 29.8755 12.686C29.7915 12.602 29.7495 12.494 29.7495 12.362V3.90201C29.7495 3.77001 29.7915 3.66201 29.8755 3.57801C29.9595 3.49401 30.0675 3.45201 30.1995 3.45201H32.2695C32.4015 3.45201 32.5095 3.49401 32.5935 3.57801C32.6775 3.66201 32.7195 3.77001 32.7195 3.90201V4.58601C33.0315 4.21401 33.4395 3.90201 33.9435 3.65001C34.4475 3.39801 35.0415 3.27201 35.7255 3.27201C36.4215 3.27201 37.0335 3.42801 37.5615 3.74001C38.1015 4.05201 38.5215 4.51401 38.8215 5.12601C39.1335 5.72601 39.2895 6.46401 39.2895 7.34001V12.362C39.2895 12.494 39.2415 12.602 39.1455 12.686C39.0615 12.77 38.9595 12.812 38.8395 12.812H36.5715C36.4515 12.812 36.3435 12.77 36.2475 12.686C36.1635 12.602 36.1215 12.494 36.1215 12.362V7.44801C36.1215 6.88401 35.9835 6.45201 35.7075 6.15201C35.4435 5.84001 35.0475 5.68401 34.5195 5.68401C34.0275 5.68401 33.6315 5.84001 33.3315 6.15201C33.0435 6.45201 32.8995 6.88401 32.8995 7.44801V12.362C32.8995 12.494 32.8515 12.602 32.7555 12.686C32.6715 12.77 32.5695 12.812 32.4495 12.812H30.1995ZM44.3295 12.812C44.1495 12.812 44.0175 12.77 43.9335 12.686C43.8495 12.59 43.7775 12.482 43.7175 12.362L40.3155 4.01001C40.2915 3.96201 40.2795 3.90801 40.2795 3.84801C40.2795 3.74001 40.3155 3.65001 40.3875 3.57801C40.4715 3.49401 40.5735 3.45201 40.6935 3.45201H42.7275C42.8835 3.45201 43.0035 3.49401 43.0875 3.57801C43.1715 3.66201 43.2255 3.74601 43.2495 3.83001L45.2835 9.35601L47.3355 3.83001C47.3595 3.74601 47.4135 3.66201 47.4975 3.57801C47.5815 3.49401 47.7015 3.45201 47.8575 3.45201H49.8915C49.9995 3.45201 50.0955 3.49401 50.1795 3.57801C50.2635 3.65001 50.3055 3.74001 50.3055 3.84801C50.3055 3.90801 50.2935 3.96201 50.2695 4.01001L46.8675 12.362C46.8195 12.482 46.7475 12.59 46.6515 12.686C46.5675 12.77 46.4295 12.812 46.2375 12.812H44.3295ZM55.673 12.992C54.257 12.992 53.129 12.608 52.289 11.84C51.449 11.072 51.011 9.93201 50.975 8.42001C50.975 8.33601 50.975 8.22801 50.975 8.09601C50.975 7.96401 50.975 7.86201 50.975 7.79001C51.011 6.84201 51.221 6.03201 51.605 5.36001C52.001 4.67601 52.541 4.16001 53.225 3.81201C53.921 3.45201 54.731 3.27201 55.655 3.27201C56.711 3.27201 57.581 3.48201 58.265 3.90201C58.961 4.32201 59.483 4.89201 59.831 5.61201C60.179 6.33201 60.353 7.15401 60.353 8.07801V8.51001C60.353 8.64201 60.305 8.75001 60.209 8.83401C60.125 8.91801 60.023 8.96001 59.903 8.96001H54.143C54.143 8.97201 54.143 8.99001 54.143 9.01401C54.143 9.03801 54.143 9.06201 54.143 9.08601C54.155 9.43401 54.215 9.75201 54.323 10.04C54.431 10.328 54.599 10.556 54.827 10.724C55.055 10.892 55.331 10.976 55.655 10.976C55.895 10.976 56.093 10.94 56.249 10.868C56.417 10.784 56.555 10.694 56.663 10.598C56.771 10.49 56.855 10.4 56.915 10.328C57.023 10.208 57.107 10.136 57.167 10.112C57.239 10.076 57.347 10.058 57.491 10.058H59.723C59.843 10.058 59.939 10.094 60.011 10.166C60.095 10.226 60.131 10.316 60.119 10.436C60.107 10.64 60.005 10.886 59.813 11.174C59.621 11.462 59.339 11.75 58.967 12.038C58.607 12.314 58.151 12.542 57.599 12.722C57.047 12.902 56.405 12.992 55.673 12.992ZM54.143 7.17801H57.185V7.14201C57.185 6.75801 57.125 6.42201 57.005 6.13401C56.897 5.84601 56.723 5.62401 56.483 5.46801C56.255 5.31201 55.979 5.23401 55.655 5.23401C55.331 5.23401 55.055 5.31201 54.827 5.46801C54.611 5.62401 54.443 5.84601 54.323 6.13401C54.203 6.42201 54.143 6.75801 54.143 7.14201V7.17801ZM62.4905 12.812C62.3585 12.812 62.2505 12.77 62.1665 12.686C62.0825 12.602 62.0405 12.494 62.0405 12.362V3.90201C62.0405 3.77001 62.0825 3.66201 62.1665 3.57801C62.2505 3.49401 62.3585 3.45201 62.4905 3.45201H64.5605C64.6925 3.45201 64.8005 3.49401 64.8845 3.57801C64.9685 3.66201 65.0105 3.77001 65.0105 3.90201V4.58601C65.3225 4.21401 65.7305 3.90201 66.2345 3.65001C66.7385 3.39801 67.3325 3.27201 68.0165 3.27201C68.7125 3.27201 69.3245 3.42801 69.8525 3.74001C70.3925 4.05201 70.8125 4.51401 71.1125 5.12601C71.4245 5.72601 71.5805 6.46401 71.5805 7.34001V12.362C71.5805 12.494 71.5325 12.602 71.4365 12.686C71.3525 12.77 71.2505 12.812 71.1305 12.812H68.8625C68.7425 12.812 68.6345 12.77 68.5385 12.686C68.4545 12.602 68.4125 12.494 68.4125 12.362V7.44801C68.4125 6.88401 68.2745 6.45201 67.9985 6.15201C67.7345 5.84001 67.3385 5.68401 66.8105 5.68401C66.3185 5.68401 65.9225 5.84001 65.6225 6.15201C65.3345 6.45201 65.1905 6.88401 65.1905 7.44801V12.362C65.1905 12.494 65.1425 12.602 65.0465 12.686C64.9625 12.77 64.8605 12.812 64.7405 12.812H62.4905ZM77.0273 12.992C76.3433 12.992 75.7313 12.836 75.1913 12.524C74.6633 12.212 74.2493 11.756 73.9493 11.156C73.6493 10.544 73.4993 9.80001 73.4993 8.92401V3.90201C73.4993 3.77001 73.5413 3.66201 73.6253 3.57801C73.7093 3.49401 73.8173 3.45201 73.9493 3.45201H76.1993C76.3313 3.45201 76.4393 3.49401 76.5233 3.57801C76.6073 3.66201 76.6493 3.77001 76.6493 3.90201V8.81601C76.6493 9.99201 77.1773 10.58 78.2333 10.58C78.7253 10.58 79.1153 10.43 79.4033 10.13C79.7033 9.81801 79.8533 9.38001 79.8533 8.81601V3.90201C79.8533 3.77001 79.8953 3.66201 79.9793 3.57801C80.0633 3.49401 80.1713 3.45201 80.3033 3.45201H82.5533C82.6853 3.45201 82.7933 3.49401 82.8773 3.57801C82.9613 3.66201 83.0033 3.77001 83.0033 3.90201V12.362C83.0033 12.494 82.9613 12.602 82.8773 12.686C82.7933 12.77 82.6853 12.812 82.5533 12.812H80.4653C80.3453 12.812 80.2373 12.77 80.1413 12.686C80.0573 12.602 80.0153 12.494 80.0153 12.362V11.678C79.7033 12.11 79.2953 12.44 78.7913 12.668C78.2993 12.884 77.7113 12.992 77.0273 12.992ZM89.4406 12.992C88.0246 12.992 86.8966 12.608 86.0566 11.84C85.2166 11.072 84.7786 9.93201 84.7426 8.42001C84.7426 8.33601 84.7426 8.22801 84.7426 8.09601C84.7426 7.96401 84.7426 7.86201 84.7426 7.79001C84.7786 6.84201 84.9886 6.03201 85.3726 5.36001C85.7686 4.67601 86.3086 4.16001 86.9926 3.81201C87.6886 3.45201 88.4986 3.27201 89.4226 3.27201C90.4786 3.27201 91.3486 3.48201 92.0326 3.90201C92.7286 4.32201 93.2506 4.89201 93.5986 5.61201C93.9466 6.33201 94.1206 7.15401 94.1206 8.07801V8.51001C94.1206 8.64201 94.0726 8.75001 93.9766 8.83401C93.8926 8.91801 93.7906 8.96001 93.6706 8.96001H87.9106C87.9106 8.97201 87.9106 8.99001 87.9106 9.01401C87.9106 9.03801 87.9106 9.06201 87.9106 9.08601C87.9226 9.43401 87.9826 9.75201 88.0906 10.04C88.1986 10.328 88.3666 10.556 88.5946 10.724C88.8226 10.892 89.0986 10.976 89.4226 10.976C89.6626 10.976 89.8606 10.94 90.0166 10.868C90.1846 10.784 90.3226 10.694 90.4306 10.598C90.5386 10.49 90.6226 10.4 90.6826 10.328C90.7906 10.208 90.8746 10.136 90.9346 10.112C91.0066 10.076 91.1146 10.058 91.2586 10.058H93.4906C93.6106 10.058 93.7066 10.094 93.7786 10.166C93.8626 10.226 93.8986 10.316 93.8866 10.436C93.8746 10.64 93.7726 10.886 93.5806 11.174C93.3886 11.462 93.1066 11.75 92.7346 12.038C92.3746 12.314 91.9186 12.542 91.3666 12.722C90.8146 12.902 90.1726 12.992 89.4406 12.992ZM87.9106 7.17801H90.9526V7.14201C90.9526 6.75801 90.8926 6.42201 90.7726 6.13401C90.6646 5.84601 90.4906 5.62401 90.2506 5.46801C90.0226 5.31201 89.7466 5.23401 89.4226 5.23401C89.0986 5.23401 88.8226 5.31201 88.5946 5.46801C88.3786 5.62401 88.2106 5.84601 88.0906 6.13401C87.9706 6.42201 87.9106 6.75801 87.9106 7.14201V7.17801ZM103.492 12.992C102.712 12.992 102.046 12.908 101.494 12.74C100.954 12.56 100.51 12.344 100.162 12.092C99.8261 11.84 99.5741 11.582 99.4061 11.318C99.2381 11.042 99.1481 10.808 99.1361 10.616C99.1241 10.484 99.1661 10.376 99.2621 10.292C99.3581 10.196 99.4601 10.148 99.5681 10.148H101.62C101.656 10.148 101.686 10.154 101.71 10.166C101.734 10.178 101.77 10.202 101.818 10.238C101.974 10.322 102.13 10.43 102.286 10.562C102.442 10.682 102.622 10.79 102.826 10.886C103.03 10.982 103.276 11.03 103.564 11.03C103.9 11.03 104.182 10.964 104.41 10.832C104.638 10.7 104.752 10.502 104.752 10.238C104.752 10.046 104.698 9.89001 104.59 9.77001C104.482 9.63801 104.26 9.51201 103.924 9.39201C103.6 9.27201 103.108 9.15201 102.448 9.03201C101.824 8.88801 101.278 8.70201 100.81 8.47401C100.342 8.23401 99.9821 7.92801 99.7301 7.55601C99.4781 7.17201 99.3521 6.71001 99.3521 6.17001C99.3521 5.69001 99.5081 5.22801 99.8201 4.78401C100.132 4.34001 100.588 3.98001 101.188 3.70401C101.788 3.41601 102.526 3.27201 103.402 3.27201C104.098 3.27201 104.698 3.35601 105.202 3.52401C105.718 3.68001 106.15 3.88401 106.498 4.13601C106.858 4.38801 107.128 4.64601 107.308 4.91001C107.488 5.17401 107.584 5.41401 107.596 5.63001C107.608 5.75001 107.572 5.85801 107.488 5.95401C107.404 6.03801 107.308 6.08001 107.2 6.08001H105.328C105.28 6.08001 105.232 6.07401 105.184 6.06201C105.136 6.03801 105.094 6.01401 105.058 5.99001C104.914 5.91801 104.77 5.82201 104.626 5.70201C104.482 5.58201 104.314 5.47401 104.122 5.37801C103.93 5.28201 103.69 5.23401 103.402 5.23401C103.078 5.23401 102.826 5.30601 102.646 5.45001C102.466 5.59401 102.376 5.78001 102.376 6.00801C102.376 6.16401 102.424 6.30801 102.52 6.44001C102.628 6.57201 102.838 6.69201 103.15 6.80001C103.474 6.90801 103.972 7.02801 104.644 7.16001C105.472 7.29201 106.132 7.50801 106.624 7.80801C107.116 8.09601 107.464 8.43801 107.668 8.83401C107.872 9.21801 107.974 9.62601 107.974 10.058C107.974 10.634 107.8 11.144 107.452 11.588C107.116 12.032 106.612 12.38 105.94 12.632C105.268 12.872 104.452 12.992 103.492 12.992ZM113.027 12.992C112.343 12.992 111.731 12.836 111.191 12.524C110.663 12.212 110.249 11.756 109.949 11.156C109.649 10.544 109.499 9.80001 109.499 8.92401V3.90201C109.499 3.77001 109.541 3.66201 109.625 3.57801C109.709 3.49401 109.817 3.45201 109.949 3.45201H112.199C112.331 3.45201 112.439 3.49401 112.523 3.57801C112.607 3.66201 112.649 3.77001 112.649 3.90201V8.81601C112.649 9.99201 113.177 10.58 114.233 10.58C114.725 10.58 115.115 10.43 115.403 10.13C115.703 9.81801 115.853 9.38001 115.853 8.81601V3.90201C115.853 3.77001 115.895 3.66201 115.979 3.57801C116.063 3.49401 116.171 3.45201 116.303 3.45201H118.553C118.685 3.45201 118.793 3.49401 118.877 3.57801C118.961 3.66201 119.003 3.77001 119.003 3.90201V12.362C119.003 12.494 118.961 12.602 118.877 12.686C118.793 12.77 118.685 12.812 118.553 12.812H116.465C116.345 12.812 116.237 12.77 116.141 12.686C116.057 12.602 116.015 12.494 116.015 12.362V11.678C115.703 12.11 115.295 12.44 114.791 12.668C114.299 12.884 113.711 12.992 113.027 12.992ZM121.571 12.812C121.439 12.812 121.331 12.77 121.247 12.686C121.163 12.602 121.121 12.494 121.121 12.362V3.90201C121.121 3.78201 121.163 3.68001 121.247 3.59601C121.331 3.50001 121.439 3.45201 121.571 3.45201H123.641C123.773 3.45201 123.881 3.50001 123.965 3.59601C124.049 3.68001 124.091 3.78201 124.091 3.90201V4.62201C124.415 4.25001 124.799 3.96201 125.243 3.75801C125.699 3.55401 126.209 3.45201 126.773 3.45201H127.565C127.685 3.45201 127.787 3.49401 127.871 3.57801C127.967 3.66201 128.015 3.77001 128.015 3.90201V5.75601C128.015 5.87601 127.967 5.98401 127.871 6.08001C127.787 6.16401 127.685 6.20601 127.565 6.20601H125.819C125.327 6.20601 124.943 6.34401 124.667 6.62001C124.403 6.88401 124.271 7.26201 124.271 7.75401V12.362C124.271 12.494 124.223 12.602 124.127 12.686C124.043 12.77 123.935 12.812 123.803 12.812H121.571Z" fill="white"/>
</g>
<defs>
<clipPath id="clip0_141_233">
<rect width="188" height="14" fill="white"/>
</clipPath>
</defs>
</svg>
